<!-- Generator: Adobe Illustrator 19.0.0, SVG Export Plug-In  -->
<svg version="1.1"
	 xmlns="http://www.w3.org/2000/svg" xmlns:xlink="http://www.w3.org/1999/xlink" xmlns:a="http://ns.adobe.com/AdobeSVGViewerExtensions/3.0/"
	 x="0px" y="0px" width="48.8px" height="44.1px" viewBox="0 0 48.8 44.1" style="enable-background:new 0 0 48.8 44.1;"
	 xml:space="preserve">
<style type="text/css">
	.st0{fill:#ffffff;}
</style>
<defs>
</defs>
<g>
	<path class="st0" d="M36.9,28.9v5.8c0,0.7-0.3,1.4-0.8,1.9c-1.6,1.6-3.4,3-5.3,4.2c-3.8,2.2-8.1,3.4-12.6,3.4
		c-4.4,0-8.8-1.2-12.6-3.4c-1.8-1-3.4-2.3-4.9-3.7C0.3,36.5,0,35.8,0,35v-6.1c0-2.4,2.3-3.3,6.8-4.6C7.6,24,8.3,23.8,9,23.6
		c2.4,2.5,5.7,4.1,9.5,4.1c3.7,0,7.1-1.6,9.5-4.1c0.7,0.2,1.5,0.4,2.2,0.7C34.6,25.6,36.9,26.4,36.9,28.9z"/>
	<path class="st0" d="M47.1,11.6h-2.9V8.6c0-0.9-0.7-1.6-1.6-1.6c-0.9,0-1.6,0.7-1.6,1.6v2.9H38c-0.9,0-1.6,0.7-1.6,1.6
		c0,0.9,0.7,1.6,1.6,1.6h2.9v2.9c0,0.9,0.7,1.6,1.6,1.6c0.9,0,1.6-0.7,1.6-1.6v-2.9h2.9c0.9,0,1.6-0.7,1.6-1.6
		C48.8,12.3,48.1,11.6,47.1,11.6z"/>
	<g>
		<path class="st0" d="M28.1,9.7v4.9c0,2.8-1.2,5.3-3.1,7.1c-1.7,1.6-4,2.6-6.6,2.6c-2.5,0-4.9-1-6.6-2.6c-1.9-1.8-3.1-4.3-3.1-7.1
			V9.7c0-5.3,4.3-9.7,9.7-9.7C23.8,0,28.1,4.3,28.1,9.7z"/>
	</g>
</g>
</svg>
