<!-- Generator: Adobe Illustrator 19.0.0, SVG Export Plug-In  -->
<svg version="1.1"
	 xmlns="http://www.w3.org/2000/svg" xmlns:xlink="http://www.w3.org/1999/xlink" xmlns:a="http://ns.adobe.com/AdobeSVGViewerExtensions/3.0/"
	 x="0px" y="0px" width="35.8px" height="42.3px" viewBox="0 0 35.8 42.3" style="enable-background:new 0 0 35.8 42.3;"
	 xml:space="preserve">
<style type="text/css">
	.st0{fill:#FFFFFF;}
	.st1{fill:#0F9675;}
</style>
<defs>
</defs>
<g>
	<g>
		<path class="st0" d="M25.6,6.3V0h-23C1.2,0,0,1.2,0,2.6v37.1c0,1.4,1.2,2.6,2.6,2.6h30.6c1.4,0,2.6-1.2,2.6-2.6V10.3h-6.2
			C27.4,10.3,25.6,8.5,25.6,6.3z"/>
		<path class="st0" d="M28.3,0v6.2c0,0.7,0.6,1.3,1.3,1.3h6.2v0L28.3,0z"/>
	</g>
	<rect x="7.3" y="12.6" class="st1" width="8.9" height="2"/>
	<rect x="7.3" y="18.6" class="st1" width="20.1" height="2.4"/>
	<rect x="7.3" y="24.7" class="st1" width="20.1" height="2.4"/>
</g>
</svg>
