<!-- Generator: Adobe Illustrator 19.0.0, SVG Export Plug-In  -->
<svg version="1.1"
	 xmlns="http://www.w3.org/2000/svg" xmlns:xlink="http://www.w3.org/1999/xlink" xmlns:a="http://ns.adobe.com/AdobeSVGViewerExtensions/3.0/"
	 x="0px" y="0px" width="50.4px" height="41px" viewBox="0 0 50.4 41" style="enable-background:new 0 0 50.4 41;"
	 xml:space="preserve">
<style type="text/css">
	.st0{fill:#ffffff;}
</style>
<defs>
</defs>
<path class="st0" d="M50.4,4.8c-1.9,0.8-3.8,1.4-5.9,1.6c2.1-1.3,3.8-3.3,4.5-5.7c-2,1.2-4.2,2-6.6,2.5c-1.9-2-4.6-3.3-7.5-3.3
	c-5.7,0-10.3,4.6-10.3,10.3c0,0.8,0.1,1.6,0.3,2.4C16.2,12.3,8.6,8.1,3.5,1.9C2.6,3.4,2.1,5.2,2.1,7.1c0,3.6,1.8,6.8,4.6,8.6
	C5,15.6,3.4,15.2,2,14.4c0,0,0,0.1,0,0.1c0,5,3.6,9.2,8.3,10.1C9.5,24.9,8.5,25,7.6,25c-0.7,0-1.3-0.1-1.9-0.2C7,29,10.8,32,15.3,32
	c-3.5,2.8-8,4.4-12.8,4.4c-0.8,0-1.7,0-2.5-0.1C4.6,39.3,10,41,15.9,41c19,0,29.4-15.8,29.4-29.4c0-0.4,0-0.9,0-1.3
	C47.3,8.7,49,6.9,50.4,4.8L50.4,4.8z"/>
</svg>
