<?xml version="1.0" encoding="utf-8"?>
<!-- Generator: Adobe Illustrator 16.0.0, SVG Export Plug-In . SVG Version: 6.00 Build 0)  -->
<!DOCTYPE svg PUBLIC "-//W3C//DTD SVG 1.1//EN" "http://www.w3.org/Graphics/SVG/1.1/DTD/svg11.dtd">
<svg version="1.1" id="Layer_1" xmlns="http://www.w3.org/2000/svg" xmlns:xlink="http://www.w3.org/1999/xlink" x="0px" y="0px"
	 width="500px" height="500px" viewBox="0 0 500 500" enable-background="new 0 0 500 500" xml:space="preserve">
<g>
	<defs>
		<rect id="SVGID_1_" width="500" height="500"/>
	</defs>
	<clipPath id="SVGID_2_">
		<use xlink:href="#SVGID_1_"  overflow="visible"/>
	</clipPath>
	<rect display="none" clip-path="url(#SVGID_2_)" fill="#BBBBBB" width="500" height="500"/>
	<g clip-path="url(#SVGID_2_)">
		<defs>
			<rect id="SVGID_3_" width="500" height="500"/>
		</defs>
		<clipPath id="SVGID_4_">
			<use xlink:href="#SVGID_3_"  overflow="visible"/>
		</clipPath>
		<g clip-path="url(#SVGID_4_)" enable-background="new    ">
			<g>
				<defs>
					<rect id="SVGID_5_" x="353.696" y="128.639" width="26.607" height="88.723"/>
				</defs>
				<clipPath id="SVGID_6_">
					<use xlink:href="#SVGID_5_"  overflow="visible"/>
				</clipPath>
				<polygon clip-path="url(#SVGID_6_)" fill-rule="evenodd" clip-rule="evenodd" fill="#A7A6A4" points="380.305,130.362 
					376.401,128.639 353.695,172.639 354.515,173 353.695,173.362 376.401,217.362 380.305,215.639 358.302,173 				"/>
			</g>
		</g>
	</g>
	<g clip-path="url(#SVGID_2_)">
		<defs>
			<rect id="SVGID_7_" width="500" height="500"/>
		</defs>
		<clipPath id="SVGID_8_">
			<use xlink:href="#SVGID_7_"  overflow="visible"/>
		</clipPath>
		<g clip-path="url(#SVGID_8_)" enable-background="new    ">
			<g>
				<defs>
					<rect id="SVGID_9_" x="383.696" y="128.639" width="26.607" height="88.723"/>
				</defs>
				<clipPath id="SVGID_10_">
					<use xlink:href="#SVGID_9_"  overflow="visible"/>
				</clipPath>
				<polygon clip-path="url(#SVGID_10_)" fill-rule="evenodd" clip-rule="evenodd" fill="#A7A6A4" points="410.305,172.639 
					387.599,128.639 383.695,130.362 405.698,173 383.695,215.639 387.599,217.362 410.305,173.362 409.485,173 				"/>
			</g>
		</g>
	</g>
	<g clip-path="url(#SVGID_2_)">
		<defs>
			<rect id="SVGID_11_" width="500" height="500"/>
		</defs>
		<clipPath id="SVGID_12_">
			<use xlink:href="#SVGID_11_"  overflow="visible"/>
		</clipPath>
		<path clip-path="url(#SVGID_12_)" fill="#231F20" d="M252.864,38.115v-0.008c-0.065,0-0.128,0.003-0.194,0.004
			c-0.065-0.001-0.127-0.004-0.193-0.004v0.008c-13.374,0.158-19.078,8.351-19.078,8.351v29.72l3.633-0.059V48.481
			c0,0,4.629-6.648,15.482-6.776h0.314c10.852,0.128,15.48,6.776,15.48,6.776v27.646l3.635,0.059v-29.72
			C271.943,46.466,266.239,38.273,252.864,38.115"/>
		<path clip-path="url(#SVGID_12_)" fill="#231F20" d="M252.802,35.077c0,0-0.128-0.004-0.193-0.004s-0.193,0.004-0.193,0.004
			c-13.375,0.158-19.079,7.794-19.079,7.794v2.012c0,0,5.704-7.821,19.079-7.98v-0.007c0.066,0,0.128,0.004,0.193,0.004
			s0.129-0.004,0.193-0.004v0.007c13.375,0.159,19.079,7.98,19.079,7.98v-2.012C271.881,42.871,266.177,35.235,252.802,35.077"/>
		<path clip-path="url(#SVGID_12_)" fill="#231F20" d="M257.777,48.042l-1.382-0.427l0.23-0.77c0,0-1.052-0.629-3.878-0.65h-0.165
			c-2.825,0.021-3.702,0.65-3.702,0.65l0.23,0.77l-1.383,0.427l0.499,1.709l4.527-0.504l4.524,0.504L257.777,48.042z"/>
		<path clip-path="url(#SVGID_12_)" fill="#231F20" d="M252.755,48.561v-0.005c-0.028,0-0.057,0.002-0.085,0.002
			s-0.056-0.002-0.084-0.002v0.005c-4.315,0.028-8.717,1.122-12.217,3.183c-0.278,0.164-0.447,0.49-0.447,0.841v3.908
			c0,0.524,0.381,0.949,0.852,0.949h11.812h0.169h11.812c0.471,0,0.852-0.425,0.852-0.949v-3.908c0-0.351-0.169-0.677-0.447-0.841
			C261.472,49.682,257.069,48.588,252.755,48.561"/>
		<rect x="245.193" y="61.92" clip-path="url(#SVGID_12_)" fill="#231F20" width="6.666" height="14.237"/>
		<rect x="253.435" y="61.92" clip-path="url(#SVGID_12_)" fill="#231F20" width="6.666" height="14.237"/>
		<polygon clip-path="url(#SVGID_12_)" fill="#231F20" points="254.423,41.142 250.764,41.142 249.692,32.813 255.493,32.813 		"/>
		<polygon clip-path="url(#SVGID_12_)" fill="#231F20" points="270.922,54.482 279.467,54.482 281.294,59.812 270.922,59.812 		"/>
		<polygon clip-path="url(#SVGID_12_)" fill="#231F20" points="234.296,54.482 225.751,54.482 223.924,59.812 234.296,59.812 		"/>
		<polyline clip-path="url(#SVGID_12_)" fill="none" stroke="#231F20" stroke-width="2.229" stroke-miterlimit="10" points="
			235.009,50.303 228.074,50.303 228.074,75.538 277.132,75.538 277.132,50.303 270.178,50.303 		"/>
	</g>
	<g clip-path="url(#SVGID_2_)">
		<defs>
			<rect id="SVGID_13_" width="500" height="500"/>
		</defs>
		<clipPath id="SVGID_14_">
			<use xlink:href="#SVGID_13_"  overflow="visible"/>
		</clipPath>
		<path clip-path="url(#SVGID_14_)" fill="#231F20" d="M199.287,47.685c-0.184-1.38-0.851-3.015-2.577-3.406
			c-0.814-0.184-2.302-0.644-3.683-2.394c-1.106-1.402-2.45-3.038-7.577-3.918c-0.112-0.691-0.451-2.662-0.789-3.483
			c-0.442-0.559-2.659-2.209-5.594-2.209c-2.934,0-4.798,1.209-5.489,1.658c-0.207,0.207-0.555,3.343-0.556,3.344
			c-4.978,0.068-8.427,0.49-9.18,0.742c-1.105,0.368-5.778,5.063-7.527,6.719c-7.699,1.072-22.361,3.385-25.584,5.594
			c-1.587,2.003,0.035,5.386,0.518,5.455c0.484,0.069-1.778,0.449-1.749,0.737c0.078,0.767,1.231,0.955,1.231,0.955
			s0.244,1.456,0.346,2.934c0.102,1.48,1.001,1.175,2.567,1.451c-0.116,1.554,3.859,2.524,7.238,3.728
			c2.369,0.845,4.285,1.744,5.007,1.934c2.145,0.06,14.362,1.059,17.676,1.335c3.315,0.276,4.143-1.197,4.88-2.025
			c0.176-0.199,0.501-0.637,0.912-1.224c0.107,1.621,0.516,4.678,2.08,5.642c0.644,0.507,4.533,0.749,5.592,0.289
			c1.059-0.461,3.19-2.035,4.005-7.228c0.126-0.801,0.217-1.596,0.266-2.371c1.727-0.882,6.929-3.598,10.187-5.315
			c0.131,1.111,0.432,3.276,1.473,3.673c0.507,0.338,3.812,0.519,4.708-0.353c2.328-2.271,2.296-7.818,0.699-9.778
			C198.367,50.171,199.195,48.422,199.287,47.685 M174.455,34.416c0.37-0.246,2.16-1.326,4.72-1.173
			c2.561,0.156,3.517,1.236,3.517,1.236l-0.493,3.453l-8.207-0.399C173.992,37.533,174.424,34.539,174.455,34.416 M140.708,51.375
			c0.174-0.174,2.417-1.46,5.481-2.653c5.802-2.259,11.767-2.69,12.484-2.957c0.826,0.086,3.092,0.192,3.092,0.192
			c-0.34,0.716-4.069,0.716-9.532,2.673c-2.449,0.877-5.003,2.148-6.31,2.74c-1.307,0.592-1.604,0.919-2.387,0.745
			C142.753,51.941,140.535,51.549,140.708,51.375 M133.624,55.313c-1.022,0.45-1.993-0.011-2.243-0.551
			c-0.249-0.541-1.162-2.367,0-4.031c0.7-0.637,2.255-0.443,2.729,1.001C134.4,52.617,134.745,54.82,133.624,55.313 M136.273,55.898
			c-0.598,0.12-1.219-0.463-1.388-1.302c-0.169-0.839,0.179-1.617,0.777-1.738c0.598-0.121,1.22,0.462,1.389,1.302
			C137.22,54.999,136.871,55.777,136.273,55.898 M152.856,63.337c-1.121,0.553-9.683-0.231-10.328-0.185
			c-0.552-0.322-4.465-1.886-4.696-2.531c-0.23-0.644-0.37-6.48-0.048-6.893c0.306-0.394,4.053,0.816,4.928,1.001
			c2.072,0.091,10.173,0.597,10.45,1.242C153.438,56.615,153.978,62.784,152.856,63.337 M158.45,59.157
			c-0.786,0.159-1.582-0.51-1.781-1.496c-0.197-0.984,0.278-1.91,1.064-2.068c0.785-0.158,1.581,0.512,1.779,1.496
			C159.711,58.074,159.235,59,158.45,59.157 M165.453,59.424c-0.691,1.013-2.289,1.289-3.897,0.242
			c-1.841-1.197-1.323-4.778-0.338-5.288c1.012-0.524,2.771-0.479,3.917,0.442C166.281,55.741,166.143,58.411,165.453,59.424
			 M166.51,48.316c-4.636,1.188-8.877,3.322-10.153,3.996c-0.769,0.406-0.946,0.778-1.904,0.769c-0.613-0.006-5.567-0.27-6.307-0.4
			c-0.739-0.131,0.871-0.957,2.35-1.741c1.478-0.783,4.945-2.082,6.142-2.397c2.069-0.543,5.384-1.648,9.277-2.148
			c0,0,6.35,0.435,7.133,0.478C173.048,47.84,171.2,47.113,166.51,48.316 M179.752,63.931c-0.333,3.171-1.673,5.629-2.993,5.491
			c-1.321-0.14-2.12-2.822-1.787-5.994c0.334-3.171,1.674-5.629,2.994-5.491C179.286,58.076,180.086,60.759,179.752,63.931
			 M158.525,44.274c0,0,4.688-4.52,5.319-4.923c0.878-0.56,1.196-0.699,2.637-0.878c3.298-0.309,11.87,0.35,13.76,0.703
			c1.89,0.35,1.728,0.767,1.934,1.494c0.085,0.299,0.571,3.033,0.747,5.407C179.01,45.418,158.525,44.274,158.525,44.274
			 M192.06,44.878c-0.23,0.598-2.946,1.242-6.951,1.38c0,0-0.691-4.373-0.828-5.155c-0.139-0.783-0.599-1.566,0.828-1.704
			c1.427-0.137,3.821,0.23,4.926,0.967C190.449,40.504,192.29,44.278,192.06,44.878 M198.391,54.545
			c-0.048,2.159-0.504,3.9-1.02,3.89c-0.514-0.012-0.893-1.772-0.845-3.93c0.048-2.159,0.504-3.901,1.019-3.89
			C198.06,50.627,198.438,52.387,198.391,54.545"/>
	</g>
	<g clip-path="url(#SVGID_2_)">
		<defs>
			<rect id="SVGID_15_" width="500" height="500"/>
		</defs>
		<clipPath id="SVGID_16_">
			<use xlink:href="#SVGID_15_"  overflow="visible"/>
		</clipPath>
		<g opacity="0.9" clip-path="url(#SVGID_16_)">
			<g>
				<defs>
					<rect id="SVGID_17_" x="192" y="96" width="99" height="63"/>
				</defs>
				<clipPath id="SVGID_18_">
					<use xlink:href="#SVGID_17_"  overflow="visible"/>
				</clipPath>
				<path clip-path="url(#SVGID_18_)" fill-rule="evenodd" clip-rule="evenodd" fill="#242424" d="M217,96h49
					c13.808,0,25,11.193,25,25v13c0,13.807-11.192,25-25,25h-49c-13.808,0-25-11.193-25-25v-13C192,107.193,203.192,96,217,96
					 M234.939,135.701c0.6,0.359,1.34,0.401,1.961,0.08l16-7.998c0.68-0.32,1.1-1.021,1.1-1.781c0-0.76-0.42-1.461-1.1-1.781
					l-16-7.998c-0.281-0.141-0.6-0.221-0.9-0.221c-0.36,0-0.741,0.099-1.061,0.301c-0.58,0.359-0.939,1-0.939,1.699v16
					C234,134.701,234.359,135.342,234.939,135.701"/>
			</g>
		</g>
	</g>
	<g clip-path="url(#SVGID_2_)">
		<defs>
			<rect id="SVGID_19_" width="500" height="500"/>
		</defs>
		<clipPath id="SVGID_20_">
			<use xlink:href="#SVGID_19_"  overflow="visible"/>
		</clipPath>
		<g clip-path="url(#SVGID_20_)" enable-background="new    ">
			<g>
				<defs>
					<rect id="SVGID_21_" x="192.99" width="12.02" height="15.969"/>
				</defs>
				<clipPath id="SVGID_22_">
					<use xlink:href="#SVGID_21_"  overflow="visible"/>
				</clipPath>
				<path clip-path="url(#SVGID_22_)" fill-rule="evenodd" clip-rule="evenodd" fill="#202020" d="M199,0
					c-3.319,0-6.01,2.714-6.01,6.061c0,4.282,4.319,8.563,5.634,9.768c0.205,0.187,0.547,0.187,0.752,0
					c1.315-1.205,5.634-5.486,5.634-9.768C205.01,2.714,202.319,0,199,0 M199,8.983c-1.639,0-2.969-1.341-2.969-2.994
					s1.33-2.994,2.969-2.994s2.969,1.341,2.969,2.994S200.639,8.983,199,8.983"/>
			</g>
		</g>
	</g>
	<g clip-path="url(#SVGID_2_)">
		<defs>
			<rect id="SVGID_23_" width="500" height="500"/>
		</defs>
		<clipPath id="SVGID_24_">
			<use xlink:href="#SVGID_23_"  overflow="visible"/>
		</clipPath>
		<path clip-path="url(#SVGID_24_)" fill="#FFFFFF" d="M172.501,6.648c0,5.713-6,13.201-6,13.201S160.5,12.361,160.5,6.648
			c0-3.312,2.688-6,6.001-6C169.813,0.648,172.501,3.336,172.501,6.648 M169.765,6.696c0-1.775-1.488-3.216-3.264-3.216
			c-1.777,0-3.216,1.441-3.216,3.216c0,1.776,1.439,3.265,3.216,3.265C168.277,9.961,169.765,8.472,169.765,6.696"/>
	</g>
	<g clip-path="url(#SVGID_2_)">
		<defs>
			<rect id="SVGID_25_" width="500" height="500"/>
		</defs>
		<clipPath id="SVGID_26_">
			<use xlink:href="#SVGID_25_"  overflow="visible"/>
		</clipPath>
		<path clip-path="url(#SVGID_26_)" fill="#0A9674" d="M145.625,0.375V7.5c0,0.111-0.035,0.202-0.104,0.271
			c-0.07,0.069-0.16,0.104-0.271,0.104h-7.125c-0.167,0-0.285-0.076-0.354-0.229c-0.056-0.167-0.028-0.306,0.083-0.417l2.209-2.187
			c-0.973-0.861-2.119-1.292-3.438-1.292c-1.445,0-2.681,0.514-3.708,1.542c-1.028,1.028-1.542,2.264-1.542,3.708
			c0,1.445,0.514,2.681,1.542,3.708c1.027,1.028,2.263,1.542,3.708,1.542c1.292,0,2.444-0.43,3.458-1.292
			c0.167-0.166,0.334-0.166,0.5,0l1.604,1.605v0.02c0.07,0.056,0.105,0.139,0.105,0.25c0,0.098-0.035,0.181-0.105,0.25
			c0,0.014-0.007,0.021-0.02,0.021c-1.57,1.431-3.417,2.146-5.542,2.146c-2.278,0-4.222-0.805-5.833-2.417
			c-1.612-1.611-2.417-3.555-2.417-5.833s0.805-4.222,2.417-5.833c1.611-1.611,3.555-2.417,5.833-2.417
			c2.125,0,3.979,0.722,5.562,2.167l2.792-2.813c0.111-0.111,0.25-0.139,0.417-0.083C145.548,0.09,145.625,0.208,145.625,0.375"/>
	</g>
	<g clip-path="url(#SVGID_2_)">
		<defs>
			<rect id="SVGID_27_" width="500" height="500"/>
		</defs>
		<clipPath id="SVGID_28_">
			<use xlink:href="#SVGID_27_"  overflow="visible"/>
		</clipPath>
		<path clip-path="url(#SVGID_28_)" fill="#7F7F7F" d="M109.81,0.007c-4.32,0.192-4.637,4.205-4.637,4.205s-0.317-4.013-4.637-4.205
			C96.296-0.182,95.79,3.44,96.06,5.37c0.172,1.222,1.158,3.704,4.013,5.864c2.854,2.16,5.101,4.012,5.101,4.012
			s2.245-1.852,5.099-4.012s3.842-4.642,4.013-5.864C114.555,3.44,114.048-0.182,109.81,0.007"/>
	</g>
	<g clip-path="url(#SVGID_2_)">
		<defs>
			<rect id="SVGID_29_" width="500" height="500"/>
		</defs>
		<clipPath id="SVGID_30_">
			<use xlink:href="#SVGID_29_"  overflow="visible"/>
		</clipPath>
		<path clip-path="url(#SVGID_30_)" fill="#231F20" d="M77.81,0.007c-4.32,0.192-4.637,4.205-4.637,4.205S72.856,0.2,68.536,0.007
			C64.296-0.182,63.79,3.44,64.06,5.37c0.172,1.222,1.158,3.704,4.013,5.864c2.854,2.16,5.101,4.012,5.101,4.012
			s2.245-1.852,5.099-4.012s3.842-4.642,4.013-5.864C82.555,3.44,82.048-0.182,77.81,0.007"/>
	</g>
	<g clip-path="url(#SVGID_2_)">
		<defs>
			<rect id="SVGID_31_" width="500" height="500"/>
		</defs>
		<clipPath id="SVGID_32_">
			<use xlink:href="#SVGID_31_"  overflow="visible"/>
		</clipPath>
		<path clip-path="url(#SVGID_32_)" fill="#FFFFFF" d="M77.81,32.007c-4.321,0.193-4.637,4.205-4.637,4.205
			s-0.317-4.012-4.638-4.205c-4.239-0.189-4.745,3.433-4.475,5.362c0.171,1.223,1.157,3.704,4.012,5.865
			c2.855,2.16,5.101,4.012,5.101,4.012s2.245-1.852,5.1-4.012c2.854-2.161,3.841-4.642,4.012-5.865
			C82.554,35.44,82.048,31.818,77.81,32.007"/>
	</g>
	<g clip-path="url(#SVGID_2_)">
		<defs>
			<rect id="SVGID_33_" width="500" height="500"/>
		</defs>
		<clipPath id="SVGID_34_">
			<use xlink:href="#SVGID_33_"  overflow="visible"/>
		</clipPath>
		
			<path clip-path="url(#SVGID_34_)" fill="none" stroke="#0A9574" stroke-width="1.488" stroke-linejoin="round" stroke-miterlimit="10" d="
			M319.93,32.474c0,0,2.433-1.12,3.742,2.635c1.31,3.756,3.64,10.993,3.64,10.993l6.349-0.544"/>
		
			<path clip-path="url(#SVGID_34_)" fill="none" stroke="#0A9574" stroke-width="1.488" stroke-linejoin="round" stroke-miterlimit="10" d="
			M327.366,46.102l-2.132,2.252v2.949h16.18c0,0,1.486-0.076,2.189,1.206"/>
		
			<polyline clip-path="url(#SVGID_34_)" fill="none" stroke="#0A9574" stroke-width="1.488" stroke-linejoin="round" stroke-miterlimit="10" points="
			331.979,45.837 329.698,48.354 329.698,51.055 		"/>
		
			<circle clip-path="url(#SVGID_34_)" fill="none" stroke="#0A9574" stroke-width="1.488" stroke-linecap="round" stroke-miterlimit="10" cx="324.34" cy="54.28" r="1.402"/>
		
			<circle clip-path="url(#SVGID_34_)" fill="none" stroke="#0A9574" stroke-width="1.488" stroke-linecap="round" stroke-miterlimit="10" cx="340.35" cy="54.28" r="1.402"/>
		<path clip-path="url(#SVGID_34_)" fill="#0A9574" d="M325.74,34.04l3.26,9.61l15.82-1.48v-8.22L325.74,34.04z M330.73,37.64
			c-0.671,0-1.221-0.54-1.221-1.21s0.55-1.21,1.221-1.21c0.67,0,1.21,0.54,1.21,1.21S331.4,37.64,330.73,37.64 M333.52,41.29
			c-0.67,0-1.21-0.55-1.21-1.22c0-0.67,0.54-1.21,1.21-1.21c0.671,0,1.211,0.54,1.211,1.21C334.73,40.74,334.19,41.29,333.52,41.29
			 M335.97,37.64c-0.67,0-1.21-0.54-1.21-1.21s0.54-1.21,1.21-1.21s1.221,0.54,1.221,1.21S336.64,37.64,335.97,37.64 M338.77,41.29
			c-0.67,0-1.21-0.55-1.21-1.22c0-0.67,0.54-1.21,1.21-1.21c0.671,0,1.211,0.54,1.211,1.21C339.98,40.74,339.44,41.29,338.77,41.29
			 M341.22,37.64c-0.67,0-1.21-0.54-1.21-1.21s0.54-1.21,1.21-1.21s1.21,0.54,1.21,1.21S341.89,37.64,341.22,37.64"/>
		
			<polygon clip-path="url(#SVGID_34_)" fill="none" stroke="#0A9574" stroke-width="1.488" stroke-linecap="round" stroke-miterlimit="10" points="
			325.86,34.036 329.184,43.654 345.07,42.167 345.07,33.95 		"/>
	</g>
	<g clip-path="url(#SVGID_2_)">
		<defs>
			<rect id="SVGID_35_" width="500" height="500"/>
		</defs>
		<clipPath id="SVGID_36_">
			<use xlink:href="#SVGID_35_"  overflow="visible"/>
		</clipPath>
		<path clip-path="url(#SVGID_36_)" fill="#0A9574" d="M327.71,88.461c0,9.333,7.593,16.926,16.926,16.926
			s16.927-7.593,16.927-16.926c0-3.704-1.2-7.132-3.227-9.922l-16.927,16.928v-23.62C333.615,73.358,327.71,80.232,327.71,88.461"/>
		<path clip-path="url(#SVGID_36_)" fill="#0A9574" d="M363.127,73.749l-2.373,2.373c2.627,3.423,4.192,7.701,4.192,12.339
			c0,11.2-9.11,20.311-20.311,20.311c-11.199,0-20.312-9.111-20.312-20.311c0-10.101,7.413-18.501,17.086-20.052V64.91
			c-11.64,1.515-20.63,11.465-20.63,23.517c0,13.099,10.619,23.719,23.72,23.719c13.1,0,23.72-10.62,23.72-23.719
			C368.22,82.883,366.313,77.787,363.127,73.749"/>
		<path clip-path="url(#SVGID_36_)" fill="#0A9574" d="M344.795,87.293l11.288-11.288c-2.98-2.74-6.94-4.426-11.288-4.467V87.293z
			 M351.342,74.573c0.935,0,1.693,0.758,1.693,1.692c0,0.935-0.759,1.693-1.693,1.693s-1.692-0.758-1.692-1.693
			C349.649,75.331,350.407,74.573,351.342,74.573 M347.386,77.958c0.935,0,1.693,0.758,1.693,1.693c0,0.934-0.759,1.692-1.693,1.692
			s-1.693-0.758-1.693-1.692C345.692,78.716,346.451,77.958,347.386,77.958"/>
		<path clip-path="url(#SVGID_36_)" fill="#0A9574" d="M358.475,73.613l2.327-2.327c-4.484-4.26-10.24-6.406-16.008-6.43v3.298
			C350.076,68.194,354.881,70.261,358.475,73.613"/>
	</g>
	<g clip-path="url(#SVGID_2_)">
		<defs>
			<rect id="SVGID_37_" width="500" height="500"/>
		</defs>
		<clipPath id="SVGID_38_">
			<use xlink:href="#SVGID_37_"  overflow="visible"/>
		</clipPath>
		
			<path clip-path="url(#SVGID_38_)" fill="none" stroke="#000000" stroke-width="2.435" stroke-linejoin="round" stroke-miterlimit="10" d="
			M0.787,2.463c0,0,3.98-1.833,6.124,4.312c2.144,6.147,5.956,17.99,5.956,17.99l10.389-0.889"/>
		
			<path clip-path="url(#SVGID_38_)" fill="none" stroke="#000000" stroke-width="2.435" stroke-linejoin="round" stroke-miterlimit="10" d="
			M12.955,24.766L9.467,28.45v4.826h26.478c0,0,2.434-0.125,3.583,1.974"/>
		
			<polyline clip-path="url(#SVGID_38_)" fill="none" stroke="#000000" stroke-width="2.435" stroke-linejoin="round" stroke-miterlimit="10" points="
			20.506,24.331 16.771,28.451 16.771,32.871 		"/>
		
			<circle clip-path="url(#SVGID_38_)" fill="none" stroke="#231F20" stroke-width="2.435" stroke-linecap="round" stroke-linejoin="round" stroke-miterlimit="10" cx="8.004" cy="38.149" r="2.295"/>
		
			<circle clip-path="url(#SVGID_38_)" fill="none" stroke="#231F20" stroke-width="2.435" stroke-linecap="round" stroke-linejoin="round" stroke-miterlimit="10" cx="34.204" cy="38.149" r="2.295"/>
		<path clip-path="url(#SVGID_38_)" d="M10.289,5.018l5.342,15.747l25.893-2.432V4.877L10.289,5.018z M18.462,10.917
			c-1.097,0-1.994-0.877-1.994-1.973c0-1.097,0.897-1.994,1.994-1.994c1.096,0,1.973,0.897,1.973,1.994
			C20.435,10.041,19.558,10.917,18.462,10.917 M23.026,16.877c-1.096,0-1.973-0.877-1.973-1.973c0-1.097,0.877-1.994,1.973-1.994
			c1.097,0,1.994,0.897,1.994,1.994C25.02,16,24.123,16.877,23.026,16.877 M27.033,10.917c-1.097,0-1.974-0.877-1.974-1.973
			c0-1.097,0.877-1.994,1.974-1.994c1.096,0,1.993,0.897,1.993,1.994C29.026,10.041,28.129,10.917,27.033,10.917 M31.617,16.877
			c-1.096,0-1.993-0.877-1.993-1.973c0-1.097,0.897-1.994,1.993-1.994c1.097,0,1.994,0.897,1.994,1.994
			C33.611,16,32.714,16.877,31.617,16.877 M35.624,10.917c-1.096,0-1.973-0.877-1.973-1.973c0-1.097,0.877-1.994,1.973-1.994
			s1.993,0.897,1.993,1.994C37.617,10.041,36.72,10.917,35.624,10.917"/>
		
			<polygon clip-path="url(#SVGID_38_)" fill="none" stroke="#000000" stroke-width="2.435" stroke-linecap="round" stroke-miterlimit="10" points="
			10.492,5.019 15.93,20.759 41.929,18.325 41.929,4.878 		"/>
	</g>
	<g clip-path="url(#SVGID_2_)">
		<defs>
			<rect id="SVGID_39_" width="500" height="500"/>
		</defs>
		<clipPath id="SVGID_40_">
			<use xlink:href="#SVGID_39_"  overflow="visible"/>
		</clipPath>
		<path clip-path="url(#SVGID_40_)" fill="#0A9574" d="M133.328,200.111c15.099,1.598,28.082,9.539,33.075,5.672
			C170.544,202.575,149.637,188.825,133.328,200.111"/>
		<path clip-path="url(#SVGID_40_)" fill="#0A9574" d="M130.615,197.945c2.301-1.723,6.208-4.022,8.465-4.459
			c-2.556-0.638-7.59-0.88-10.382-1.045c-18.975-1.121-26.273,3.145-29.762,7.774C93.826,206.999,97.579,222.682,130.615,197.945"/>
		<path clip-path="url(#SVGID_40_)" fill="#0A9574" d="M142.461,225.009l-1.864-9.185c-0.097-0.468-0.314-0.867-0.77-1.215
			c-1.92-1.469-7.791-6.191-7.791-6.191c-0.876-0.5-2.142-0.289-2.827,0.47c-0.555,0.617-0.557,1.405-0.069,1.953
			c-0.805,0.801-0.375,1.712,0.241,2.297l4.734,4.435l1.029,7.906c-0.105,0.856-0.574,1.907-0.899,2.921l-1.909-7.617
			c-0.197-1.292-1.4-2.165-2.908-1.914c-1.506,0.251-2.122,1.48-1.925,2.772l1.048,7.098l-0.349,6.766
			c0.039,1.319,0.595,2.372,1.796,4.045c1.965,2.733,7.081,8.19,7.081,8.19l9.018-4.188l-2.983-6.34
			c-0.891-2.072-0.351-7.286-0.275-8.887C142.839,228.325,142.86,226.493,142.461,225.009"/>
		<path clip-path="url(#SVGID_40_)" fill="#FFFFFF" d="M37.263,200.361c15.099,1.598,28.082,9.539,33.075,5.672
			C74.479,202.825,53.572,189.075,37.263,200.361"/>
		<path clip-path="url(#SVGID_40_)" fill="#FFFFFF" d="M34.55,198.195c2.301-1.723,6.208-4.022,8.465-4.459
			c-2.556-0.638-7.59-0.88-10.382-1.045c-18.975-1.121-26.273,3.145-29.762,7.774C-2.239,207.249,1.514,222.932,34.55,198.195"/>
		<path clip-path="url(#SVGID_40_)" fill="#FFFFFF" d="M46.396,225.259l-1.864-9.185c-0.097-0.468-0.314-0.867-0.77-1.215
			c-1.92-1.469-7.791-6.191-7.791-6.191c-0.876-0.5-2.142-0.289-2.827,0.47c-0.555,0.617-0.557,1.405-0.069,1.953
			c-0.805,0.801-0.375,1.712,0.241,2.297l4.734,4.435l1.029,7.906c-0.105,0.856-0.574,1.907-0.899,2.921l-1.909-7.617
			c-0.197-1.292-1.4-2.165-2.908-1.914c-1.506,0.251-2.122,1.48-1.925,2.772l1.048,7.098l-0.349,6.766
			c0.039,1.319,0.595,2.372,1.796,4.045c1.965,2.733,7.081,8.19,7.081,8.19l9.018-4.188l-2.983-6.34
			c-0.891-2.072-0.351-7.286-0.275-8.887C46.774,228.575,46.795,226.743,46.396,225.259"/>
		<path clip-path="url(#SVGID_40_)" fill="#0A9574" d="M143.206,156.325c-0.789,0.82-1.684,1.531-2.661,2.11
			c8.908,1.559,15.083,4.946,15.083,8.873c0,5.409-11.698,9.793-26.127,9.793c-14.431,0-26.128-4.384-26.128-9.793
			c0-5.043,10.18-9.196,23.262-9.731c-0.882-0.683-1.662-1.477-2.327-2.359c-15.063,1.026-26.557,6.435-26.557,12.957
			c0,7.256,14.214,13.136,31.749,13.136c17.535,0,31.75-5.88,31.75-13.136C161.25,162.952,153.879,158.441,143.206,156.325"/>
		<path clip-path="url(#SVGID_40_)" fill="#0A9574" d="M132.609,160.343c-9.254-0.078-16.757,2.411-16.757,5.383
			c0,0.912,0.706,1.769,1.948,2.52c-2.987-0.97-4.832-2.307-4.832-3.781c0-0.84,0.6-1.636,1.668-2.344
			c-4.082,1.257-6.929,3.047-6.627,4.984c0.43,2.759,6.137,6.831,18.753,6.831c9.255,0,16.757-2.411,16.757-5.385
			c0-0.911-0.706-1.768-1.949-2.52c2.988,0.972,4.833,2.309,4.833,3.782c0,0.709-0.431,1.386-1.207,2.006
			c3.592-1.234,5.957-2.898,5.794-4.714C150.72,164.103,141.931,160.422,132.609,160.343"/>
		<path clip-path="url(#SVGID_40_)" fill="#0A9574" d="M132.361,157.147c-5.233-0.829-8.574-6.079-7.543-11.277l14.526,2.882
			l6.895-16.351c0,0,1.484-3.757,5.279-3.757c0.7,0,1.48,0.128,2.344,0.432c5.507,1.935,1.851,8.868,1.851,8.868l-3.361-1.879
			c0,0,1.644-2.531,0.068-3.059c-1.359-0.455-1.916,1.041-1.916,1.041s-5.352,12.954-7.346,17.176
			C141.843,154.008,138.784,158.164,132.361,157.147"/>
		<path clip-path="url(#SVGID_40_)" fill="#FFFFFF" d="M47.357,155.845c-0.789,0.82-1.684,1.531-2.661,2.11
			c8.908,1.559,15.083,4.946,15.083,8.873c0,5.409-11.698,9.793-26.127,9.793c-14.431,0-26.128-4.384-26.128-9.793
			c0-5.043,10.18-9.196,23.262-9.731c-0.882-0.683-1.662-1.477-2.327-2.359c-15.063,1.026-26.557,6.435-26.557,12.957
			c0,7.256,14.214,13.136,31.749,13.136c17.535,0,31.75-5.88,31.75-13.136C65.401,162.472,58.031,157.961,47.357,155.845"/>
		<path clip-path="url(#SVGID_40_)" fill="#FFFFFF" d="M36.761,159.862c-9.254-0.078-16.757,2.411-16.757,5.383
			c0,0.912,0.706,1.769,1.948,2.52c-2.987-0.97-4.832-2.307-4.832-3.781c0-0.84,0.6-1.636,1.668-2.344
			c-4.082,1.257-6.929,3.047-6.627,4.984c0.43,2.759,6.137,6.831,18.753,6.831c9.255,0,16.757-2.411,16.757-5.385
			c0-0.911-0.706-1.768-1.949-2.52c2.988,0.972,4.833,2.309,4.833,3.782c0,0.709-0.431,1.386-1.207,2.006
			c3.592-1.234,5.957-2.898,5.794-4.714C54.872,163.623,46.083,159.941,36.761,159.862"/>
		<path clip-path="url(#SVGID_40_)" fill="#FFFFFF" d="M36.513,156.667c-5.233-0.829-8.574-6.079-7.543-11.277l14.526,2.882
			l6.895-16.351c0,0,1.484-3.757,5.279-3.757c0.7,0,1.48,0.128,2.344,0.432c5.507,1.935,1.851,8.868,1.851,8.868l-3.361-1.879
			c0,0,1.644-2.531,0.068-3.059c-1.359-0.455-1.916,1.041-1.916,1.041s-5.352,12.954-7.346,17.177
			C45.995,153.528,42.936,157.684,36.513,156.667"/>
		<path clip-path="url(#SVGID_40_)" fill="#0A9574" d="M90.811,116.027c14.451,0,26.167-11.715,26.167-26.166
			c0-14.452-11.716-26.167-26.167-26.167c-14.451,0-26.166,11.715-26.166,26.167C64.645,104.312,76.359,116.027,90.811,116.027
			 M90.811,69.481c11.255,0,20.38,9.124,20.38,20.38c0,11.255-9.125,20.379-20.38,20.379c-11.255,0-20.38-9.124-20.38-20.379
			C70.43,78.605,79.555,69.481,90.811,69.481"/>
		<path clip-path="url(#SVGID_40_)" fill="#0A9574" d="M88.789,90.354l0.816,1.372c0.528,0.866,1.462,0.674,2.417,0.212
			c0.954-0.462,1.685-1.074,1.333-2.025l-0.556-1.351c0.944,0.188,1.44-0.397,1.017-1.272c-0.774-1.6-2.868-2.188-4.677-1.312
			c-1.809,0.875-2.649,2.881-1.875,4.482C87.687,91.334,88.53,91.156,88.789,90.354"/>
		<path clip-path="url(#SVGID_40_)" fill="#0A9574" d="M77.547,96.006l-0.062,1.596c-0.029,1.014,0.859,1.361,1.911,1.493
			c1.052,0.132,1.998,0.017,2.221-0.972l0.269-1.437c0.689,0.672,1.424,0.452,1.545-0.512c0.223-1.764-1.213-3.397-3.208-3.647
			c-1.993-0.252-3.79,0.974-4.013,2.737C76.089,96.228,76.893,96.538,77.547,96.006"/>
		<path clip-path="url(#SVGID_40_)" fill="#0A9574" d="M99.569,90.512c-0.473,0.849,0.157,1.436,0.962,1.188l-0.655,1.456
			c-0.406,0.93,0.288,1.583,1.214,2.1c0.927,0.516,1.847,0.764,2.424-0.071l0.787-1.231c0.387,0.881,1.151,0.951,1.625,0.102
			c0.865-1.552,0.145-3.603-1.611-4.582C102.559,88.495,100.435,88.958,99.569,90.512"/>
		<path clip-path="url(#SVGID_40_)" fill="#0A9574" d="M93.155,97.042c-2.309,0-4.179,1.873-4.179,4.181
			c0,2.308,1.87,4.179,4.179,4.179c2.308,0,4.179-1.871,4.179-4.179C97.334,98.916,95.463,97.042,93.155,97.042"/>
		<path clip-path="url(#SVGID_40_)" fill="#0A9574" d="M97.474,83.319c2.309,0,4.179-1.871,4.179-4.179s-1.87-4.181-4.179-4.181
			c-2.309,0-4.179,1.873-4.179,4.181S95.165,83.319,97.474,83.319"/>
		<path clip-path="url(#SVGID_40_)" fill="#0A9574" d="M81.72,85.931c2.308,0,4.179-1.871,4.179-4.179
			c0-2.309-1.871-4.181-4.179-4.181c-2.309,0-4.179,1.872-4.179,4.181C77.541,84.06,79.411,85.931,81.72,85.931"/>
		<path clip-path="url(#SVGID_40_)" fill="#FFFFFF" d="M26.167,116.027c14.451,0,26.167-11.715,26.167-26.166
			c0-14.452-11.716-26.167-26.167-26.167S0,75.409,0,89.861C0,104.312,11.715,116.027,26.167,116.027 M26.167,69.481
			c11.255,0,20.38,9.124,20.38,20.38c0,11.255-9.125,20.379-20.38,20.379s-20.38-9.124-20.38-20.379
			C5.787,78.605,14.912,69.481,26.167,69.481"/>
		<path clip-path="url(#SVGID_40_)" fill="#FFFFFF" d="M24.145,90.354l0.816,1.372c0.528,0.866,1.462,0.674,2.417,0.212
			c0.954-0.462,1.685-1.074,1.333-2.025l-0.556-1.351c0.944,0.188,1.44-0.397,1.017-1.272c-0.774-1.6-2.868-2.188-4.677-1.312
			c-1.809,0.875-2.649,2.881-1.875,4.482C23.043,91.334,23.886,91.156,24.145,90.354"/>
		<path clip-path="url(#SVGID_40_)" fill="#FFFFFF" d="M12.903,96.006l-0.062,1.596c-0.029,1.014,0.859,1.361,1.911,1.493
			c1.052,0.132,1.998,0.017,2.221-0.972l0.269-1.437c0.689,0.672,1.424,0.452,1.545-0.512c0.223-1.764-1.213-3.397-3.208-3.647
			c-1.993-0.252-3.79,0.974-4.013,2.737C11.445,96.228,12.25,96.538,12.903,96.006"/>
		<path clip-path="url(#SVGID_40_)" fill="#FFFFFF" d="M34.925,90.512c-0.473,0.849,0.156,1.436,0.962,1.188l-0.655,1.456
			c-0.406,0.93,0.288,1.583,1.214,2.1c0.927,0.516,1.847,0.764,2.424-0.071l0.787-1.231c0.387,0.881,1.151,0.951,1.625,0.102
			c0.865-1.552,0.144-3.603-1.611-4.582C37.915,88.495,35.791,88.958,34.925,90.512"/>
		<path clip-path="url(#SVGID_40_)" fill="#FFFFFF" d="M28.511,97.042c-2.309,0-4.179,1.873-4.179,4.181
			c0,2.308,1.87,4.179,4.179,4.179c2.308,0,4.179-1.871,4.179-4.179C32.69,98.916,30.819,97.042,28.511,97.042"/>
		<path clip-path="url(#SVGID_40_)" fill="#FFFFFF" d="M32.83,83.319c2.309,0,4.179-1.871,4.179-4.179s-1.87-4.181-4.179-4.181
			s-4.179,1.873-4.179,4.181S30.521,83.319,32.83,83.319"/>
		<path clip-path="url(#SVGID_40_)" fill="#FFFFFF" d="M17.076,85.931c2.308,0,4.179-1.871,4.179-4.179
			c0-2.309-1.871-4.181-4.179-4.181c-2.309,0-4.179,1.872-4.179,4.181C12.897,84.06,14.768,85.931,17.076,85.931"/>
	</g>
	<g clip-path="url(#SVGID_2_)">
		<defs>
			<rect id="SVGID_41_" width="500" height="500"/>
		</defs>
		<clipPath id="SVGID_42_">
			<use xlink:href="#SVGID_41_"  overflow="visible"/>
		</clipPath>
		<path clip-path="url(#SVGID_42_)" fill="#FFFFFF" d="M360.979,0.145c2.205,0,4.011,0.675,5.417,2.025
			c1.405,1.35,2.108,2.944,2.108,4.781c0,2.364-0.595,4.313-1.785,5.847c-1.19,1.534-2.728,2.301-4.613,2.301
			c-0.624,0-1.21-0.144-1.761-0.432c-0.552-0.287-0.938-0.63-1.163-1.03c-0.446,1.821-0.727,2.908-0.839,3.259
			c-0.144,0.559-0.398,1.166-0.766,1.821c-0.368,0.655-0.652,1.123-0.853,1.402c-0.199,0.28-0.371,0.5-0.515,0.659
			c-0.048,0.064-0.104,0.088-0.167,0.072c-0.065-0.016-0.104-0.056-0.12-0.12c-0.208-2.029-0.192-3.538,0.048-4.529l1.51-6.47
			c-0.24-0.512-0.359-1.142-0.359-1.893c0-0.879,0.22-1.61,0.659-2.193s0.979-0.875,1.617-0.875c0.511,0,0.906,0.168,1.187,0.503
			c0.279,0.336,0.419,0.759,0.419,1.27c0,0.32-0.059,0.707-0.179,1.163c-0.121,0.455-0.276,0.986-0.469,1.593
			c-0.19,0.608-0.326,1.095-0.406,1.462c-0.145,0.623-0.024,1.163,0.359,1.617c0.383,0.456,0.894,0.684,1.533,0.684
			c1.104,0,2.005-0.615,2.708-1.846c0.703-1.23,1.054-2.723,1.054-4.481c0-1.342-0.435-2.436-1.306-3.283
			c-0.87-0.847-2.08-1.27-3.63-1.27c-1.758,0-3.175,0.555-4.253,1.665c-1.079,1.111-1.618,2.449-1.618,4.014
			c0,0.927,0.263,1.71,0.791,2.349c0.175,0.208,0.231,0.423,0.167,0.647l-0.24,0.959c-0.079,0.319-0.278,0.423-0.599,0.311
			c-0.799-0.335-1.401-0.911-1.81-1.725c-0.406-0.815-0.61-1.758-0.61-2.828c0-0.863,0.183-1.725,0.552-2.588
			c0.367-0.863,0.886-1.657,1.556-2.385c0.673-0.727,1.563-1.318,2.674-1.773C358.387,0.373,359.621,0.145,360.979,0.145"/>
		<path clip-path="url(#SVGID_42_)" fill="#FFFFFF" d="M323.103,0.549h-1.186c-0.655,0-1.186,0.53-1.186,1.185V2.92v7.114v7.114
			v1.186c0,0.655,0.53,1.186,1.186,1.186h1.186h14.229h1.185c0.656,0,1.187-0.531,1.187-1.186v-1.186v-7.114V2.92V1.734
			c0-0.655-0.53-1.185-1.187-1.185h-1.185H323.103z M330.217,7.663c1.309,0,2.371,1.064,2.371,2.371
			c0,1.307-1.062,2.372-2.371,2.372s-2.372-1.065-2.372-2.372C327.845,8.727,328.908,7.663,330.217,7.663 M337.331,17.148h-14.229
			v-7.114h2.371c0,2.616,2.128,4.743,4.743,4.743c2.614,0,4.742-2.127,4.742-4.743h2.372V17.148z M337.331,6.477h-3.557V2.92h3.557
			V6.477z"/>
		<path clip-path="url(#SVGID_42_)" fill="#FFFFFF" d="M306.097,0.058h-13.914c-1.857,0-3.391,1.637-3.391,3.614v8.282
			c0,1.993,1.533,3.617,3.391,3.617h13.914c1.862,0,3.38-1.624,3.38-3.617V3.671C309.477,1.694,307.959,0.058,306.097,0.058
			 M302.771,8.168l-5.64,3.438c-0.321,0.195-0.583,0.045-0.583-0.337V4.357c0-0.383,0.262-0.532,0.583-0.336l5.64,3.436
			C303.093,7.653,303.093,7.973,302.771,8.168"/>
		<path clip-path="url(#SVGID_42_)" fill="#FFFFFF" d="M430.638,16.19c-0.313,0-0.618-0.039-0.911-0.105v4.428h-11.979V4.488h11.979
			v1.206c0.293-0.066,0.598-0.105,0.911-0.105c0.283,0,0.56,0.029,0.827,0.084v-3.11c0-1.492-1.077-2.702-2.406-2.702h-10.423
			c-1.328,0-2.405,1.21-2.405,2.702v19.873c0,1.493,1.077,2.703,2.405,2.703h10.423c1.329,0,2.406-1.21,2.406-2.703v-6.33
			C431.197,16.161,430.921,16.19,430.638,16.19 M421.86,1.762h3.976V2.65h-3.976V1.762z M423.848,24.011
			c-0.596,0-1.08-0.483-1.08-1.08c0-0.597,0.484-1.08,1.08-1.08s1.08,0.483,1.08,1.08C424.928,23.528,424.443,24.011,423.848,24.011
			"/>
		<path clip-path="url(#SVGID_42_)" fill="none" stroke="#FFFFFF" stroke-miterlimit="10" d="M438.77,10.848
			c0-2.852-3.641-5.164-8.133-5.164c-4.491,0-8.133,2.312-8.133,5.164c0,1.426,0.584,2.497,2.056,3.431
			c0.459,0.291-2.275,3.539-1.479,3.87c1.926,0.8,4.931-2.415,5.602-2.288c0.738,0.14,1.146,0.151,1.954,0.151
			C435.129,16.011,438.77,13.699,438.77,10.848z"/>
		<polygon clip-path="url(#SVGID_42_)" fill="#FFFFFF" points="461.818,17.869 456.561,17.869 449.659,23.966 468.687,23.966 		"/>
		<polygon clip-path="url(#SVGID_42_)" fill="#FFFFFF" points="455.273,17.122 448.4,9.994 448.4,23.195 		"/>
		<polygon clip-path="url(#SVGID_42_)" fill="#FFFFFF" points="463.104,17.122 469.98,23.227 469.98,9.951 		"/>
		<polygon clip-path="url(#SVGID_42_)" fill="#FFFFFF" points="452.586,12.226 456.625,16.361 462.061,16.361 466.34,11.803 
			466.34,6.221 452.586,6.241 		"/>
		<polygon clip-path="url(#SVGID_42_)" fill="#FFFFFF" points="451.145,7.154 449.187,8.775 451.145,10.806 		"/>
		<polygon clip-path="url(#SVGID_42_)" fill="#FFFFFF" points="459.372,0.344 453.957,4.827 464.604,4.827 		"/>
		<polygon clip-path="url(#SVGID_42_)" fill="#FFFFFF" points="466.34,6.221 452.56,6.221 452.56,6.238 466.254,6.238 466.34,6.238 
					"/>
		<polygon clip-path="url(#SVGID_42_)" fill="#FFFFFF" points="467.769,7.536 467.769,10.217 469.181,8.745 		"/>
		<polygon clip-path="url(#SVGID_42_)" fill-rule="evenodd" clip-rule="evenodd" fill="#FFFFFF" points="95.999,32 104.494,44.002 
			112.989,32 		"/>
		<path clip-path="url(#SVGID_42_)" fill="#FFFFFF" d="M276.793,2.438c-0.771,0.342-1.598,0.572-2.467,0.677
			c0.888-0.531,1.567-1.372,1.89-2.376c-0.831,0.493-1.751,0.851-2.729,1.042c-0.782-0.835-1.899-1.356-3.134-1.356
			c-2.372,0-4.295,1.924-4.295,4.295c0,0.337,0.039,0.664,0.111,0.978c-3.568-0.179-6.734-1.888-8.853-4.487
			c-0.368,0.634-0.58,1.373-0.58,2.16c0,1.489,0.992,2.802,2.145,3.574c-0.704-0.023-1.712-0.217-1.712-0.539v0.056
			c0,2.08,1.247,3.815,3.211,4.211c-0.361,0.097-0.856,0.151-1.248,0.151c-0.277,0-0.604-0.028-0.867-0.079
			c0.547,1.706,2.104,2.948,3.982,2.984c-1.47,1.149-3.337,1.837-5.348,1.837c-0.347,0-0.695-0.021-1.032-0.059
			c1.901,1.216,4.154,1.929,6.579,1.929c7.9,0,12.217-6.544,12.217-12.218c0-0.187-0.006-0.373-0.015-0.557
			C275.49,4.055,276.218,3.299,276.793,2.438"/>
		<path clip-path="url(#SVGID_42_)" d="M416,48.15c0-2.181,2.045-3.971,5.549-4.563c0.792-0.134,1.4-0.778,1.45-1.58
			c0.017-0.268-0.073-0.549-0.289-0.71c-1.101-0.827-1.38-2.853-1.38-4.567c0-2.44,1.64-4.41,3.67-4.41s3.67,1.97,3.67,4.41
			c0,1.624-0.634,3.589-1.697,4.465c-0.227,0.186-0.321,0.486-0.273,0.775l0.013,0.084c0.119,0.719,0.674,1.29,1.39,1.43
			c3.405,0.668,5.568,2.543,5.568,4.666"/>
		<path clip-path="url(#SVGID_42_)" fill="#231F20" d="M197.125,204.471c-0.715,0-1.427-0.335-2.242-1.057
			c-0.932-0.825-3.017-3.321-2.233-8.647c0.645-4.384,1.804-8.474,4.132-14.589c2.219-5.827,4.467-9.759,4.756-10.256
			c-0.072-0.345-0.451-2.12-0.801-3.201c-0.232-0.714-0.427-1.21-0.569-1.572c-0.178-0.453-0.268-0.681-0.248-0.875
			c0.034-0.339,0.134-0.558,0.565-0.742c0.125-0.053,0.266-0.081,0.409-0.081c0.24,0,0.46,0.078,0.621,0.221
			c0.159,0.141,0.421,0.525,0.866,2.226c0.169,0.649,0.409,1.68,0.526,2.192c0.457-0.544,1.573-1.862,2.254-2.554
			c1.451-1.475,5.056-4.081,8.555-4.793c1.078-0.22,2.175-0.331,3.26-0.331c2.207,0,4.123,0.458,5.54,1.324
			c3.161,1.933,7.218,5.442,5.951,13.571c-1.966,12.614-13.942,15.306-14.451,15.414c-1.15,0.245-2.275,0.37-3.343,0.37
			c-3.069,0-4.89-1-5.49-1.395c-0.037,0.261-0.098,0.685-0.163,1.095c-0.005,0.031-0.508,3.156-1.463,5.661
			c-0.09,0.237-0.177,0.472-0.264,0.707c-0.713,1.923-1.45,3.91-3.63,5.996C198.722,204.053,197.917,204.471,197.125,204.471
			 M202.158,172.077c-0.395,0.76-1.376,2.714-2.78,5.973c-1.946,4.518-3.279,9.03-4.6,15.575c-1.075,5.321,0.821,7.791,1.908,8.153
			c0.093,0.031,0.192,0.047,0.295,0.047c1.082,0,2.73-1.785,4.1-4.443c1.558-3.022,2.208-8.031,2.301-8.803
			c-0.349-0.208-1.457-0.903-1.585-1.431c-0.028-0.12-0.011-0.232,0.05-0.326c0.053-0.081,0.159-0.177,0.366-0.177
			c0.397,0,1.016,0.372,1.357,0.598c0.037-0.811,0.115-3.317-0.095-6.737C203.262,177.052,202.441,173.294,202.158,172.077
			 M205.229,188.235c0.303,0.259,1.883,1.477,4.803,1.477c2.208,0,4.662-0.681,7.293-2.025c5.078-2.593,7.939-9.32,8.55-12.951
			c0.7-4.162-0.428-7.462-3.548-10.385c-1.223-1.146-3.532-2.484-6.013-2.484c-0.099,0-0.196,0.003-0.295,0.007
			c-3.511,0.153-6.897,2.352-8.19,3.291c-1.997,1.449-4.014,4.539-4.306,4.997c0.111,0.432,0.729,2.929,1.388,7.674
			C205.638,183.063,205.286,187.583,205.229,188.235"/>
		<path clip-path="url(#SVGID_42_)" fill="#231F20" d="M239.31,197.525c-1.638,0.43-3.425,1.128-5.132,0.868
			c-1.135-0.172-2.366-1.517-2.366-1.517s-1.288,2.455-3.324,1.867c-0.696-0.202-1.468-1.218-1.468-1.218s-0.021,0.626-1.368,1.297
			c-1.18,0.588-2.955,0.954-3.734,0.494c-0.779-0.459-0.994-0.694-0.994-0.694s-1.801,6.73-2.819,10.514
			c-1.018,3.783-1.508,5.191-2.436,7.776c-0.929,2.586-1.087,2.306-1.747,2.257c-0.799-0.061-0.529-1.478-0.36-3.455
			c0.17-1.977,0.859-5.66,1.468-8.436c0.609-2.775,1.268-3.853,1.923-5.361c0.656-1.507,1.22-2.353,1.22-2.353
			s-0.728,0.619-1.818,0.896c-0.739,0.187-1.326,0.137-2.047-0.383c-0.648-0.467-1.369-1.3-1.369-1.3s-0.713,1.787-1.717,2.259
			c-1.003,0.472-2.333,0.392-3.346-0.396c-0.958-0.747-1.475-1.8-1.138-3.419c0.387-1.853,1.382-2.361,2.308-2.811
			c1.619-0.787,3.899-0.102,4.16,0.045c0.72,0.405,0.93,1.037,0.832,1.372c-0.099,0.334-0.43,0.982-0.135,1.828
			c0.295,0.846,0.983,1.558,1.456,1.575c1.092,0.037,1.814-0.182,2.66-0.929c0.846-0.748,1.192-1.057,1.945-2.653
			c0.286-0.605,0.191-3.277,0.416-3.599c0.158-0.225,0.716-0.289,0.9-0.068c0.204,0.246,0.202,0.999,0.202,0.999
			s0.315-0.549,1.139-0.992c0.409-0.22,1.311-0.466,1.843-0.249c0.531,0.216,0.774,0.426,1.069,0.741
			c0.295,0.315,0.836,1.046,0.708,2.342c-0.109,1.108-0.952,2.377-0.952,2.377s1.08-0.735,1.68-2.2
			c0.147-0.359,0.972-1.245,1.423-1.583c1.244-0.933,2.926-0.818,2.926-0.818s0.905-0.02,1.083,0.059
			c0.177,0.079,0.708,0.276,0.511,1.023c-0.197,0.748-0.393,1.673-0.157,2.165c0.236,0.492,0.829,1.291,1.456,1.358
			c1.102,0.118,2.263-0.394,3.444-0.669c1.18-0.276,2.853-0.551,3.345-0.591c0,0,0.619-0.104,1.808-0.022
			c1.19,0.081,2.515,0.372,2.697,0.544c0.181,0.173,0.39,0.654-0.372,0.672c-0.763,0.019-2.053-0.127-2.47-0.1
			C242.663,197.038,240.947,197.095,239.31,197.525 M208.461,196.277c-0.669,0.964-0.698,1.754-0.414,2.5
			c0.41,1.08,1.319,1.379,2.146,1.143c0.826-0.236,1.86-2.54,2.038-3.249c0.177-0.708,0.34-1.02,0.076-1.339
			c-0.264-0.319-0.705-0.396-1.178-0.392C209.968,194.95,209.13,195.312,208.461,196.277 M221.442,196.983
			c0.191,0.318,0.951,1.512,2.204,0.562c0.505-0.383,1.108-1.499,1.383-2.68c0.276-1.18-0.528-1.924-0.952-1.991
			c-0.663-0.106-1.705,0.483-2.159,1.255C221.468,194.895,221.2,196.58,221.442,196.983 M229.799,197.057
			c0.421-0.374,0.93-1.232,1.165-1.67c0.315-0.588,0.28-1.096,0.098-1.332c-0.258-0.336-0.826-0.118-1.2,0
			c-0.374,0.118-0.668,0.317-1.2,0.986c-0.531,0.669-0.453,0.943-0.453,1.376c0,0.432,0.081,0.839,0.485,1.057
			C228.996,197.636,229.377,197.431,229.799,197.057 M216.958,208.209c0.516-1.728,1.351-5.701,1.351-5.701
			s-1.379,3.055-2.106,5.383c-0.727,2.328-0.794,5.443-0.794,5.443S216.442,209.938,216.958,208.209"/>
		<path clip-path="url(#SVGID_42_)" fill="#231F20" d="M275.946,188.031c0.222-0.277-0.216-1.03-0.729-1.159
			c-0.515-0.128-1.159,0.086-1.545,0.58c-0.386,0.493-0.897,2.47-0.601,3.325c0.391,1.127,0.757,1.687,1.965,2.471
			c0.604,0.391,2.97,0.79,3.569,0.018c0.602-0.772,0.688-1.728,0.259-3.052c-0.43-1.325-0.901-2.054-0.901-2.054
			s0.927,0.628,1.888,0.386c1.588-0.401,3.818-1.71,3.818-1.71s-0.343,2.01-0.6,2.868c-0.259,0.859-0.516,1.288-0.516,1.459
			c0,0.172,0.901,0.901,1.115,0.859c0.215-0.043,0.601-1.459,1.073-2.36c0.472-0.902,2.273-2.826,2.273-2.826
			s-0.686,2.471,0.258,3.378c0.944,0.906,1.717,1.272,2.36,1.153c0.645-0.118,1.416-0.59,1.759-1.963
			c0.344-1.373,0.473-2.304,1.03-2.568s0.944-0.221,1.158,1.152c0.215,1.373,0.43,1.845,1.717,2.36
			c1.287,0.515,2.261-0.28,4.664-0.511c2.402-0.231,3.664-0.324,4.565-0.367c0.9-0.043,2.355,0.277,2.355-0.323
			c0-0.601-0.901-0.773-1.802-0.816c-0.901-0.043-3.304,0.043-5.235,0.215c-1.931,0.172-3.132,0.644-3.818,0.644
			s-0.987-0.43-1.416-1.76c-0.43-1.33-0.559-1.716-1.674-1.973c-1.115-0.258-1.802,0.257-1.802,0.257s-0.43-0.343-0.729,0.086
			c-0.301,0.429-0.301,1.545-0.687,2.446c-0.387,0.901-1.073,1.759-1.459,1.416c-0.386-0.344,0.386-2.146,0.043-3.047
			c-0.344-0.901-0.687-1.217-1.416-1.231c-0.729-0.013-1.76,1.059-1.76,1.059s0.429-1.458,1.202-3.046
			c0.771-1.588,2.316-6.179,2.359-7.252c0.043-1.072-0.644-3.046-1.674-0.772c-1.028,2.274-1.416,5.75-2.145,7.466
			c-0.729,1.716-1.674,2.789-3.391,3.519c-1.716,0.729-2.487,1.244-3.347,0.987c-0.858-0.258-0.858-0.773-1.373-0.816
			s-0.558,0.386-0.171,0.901c0.386,0.515,1.201,2.403,1.373,2.918c0,0,0.539,1.58-0.751,1.816c-1.336,0.244-2.766-0.626-2.897-1.618
			c-0.188-1.425,0.235-2.505,0.758-2.531C275.594,187.989,275.724,188.308,275.946,188.031"/>
		<path clip-path="url(#SVGID_42_)" fill="#231F20" d="M245.716,193.417c-0.214,0.343-1.115,0.879-2.36,2.252
			c-1.244,1.373-2.702,2.89-2.721,5.522c-0.038,5.172,2.618,8.112,7.629,10.673c5.186,2.65,9.968,2.189,15.195-0.812
			c5.111-2.935,7.38-9.054,7.553-13.666c0.139-3.751-0.966-8.775-1.803-12.186c-0.837-3.412-1.927-8.332-2.146-9.526
			c-0.155-0.849-0.25-1.167-0.536-1.168s-1.376,1.118-3.315,2.819c-4.364,3.826-8.883,5.699-13.063,6.373
			c-2.296,0.371-5.959,0.573-5.959,0.573s1.558,1.702,2.812,3.019c1.161,1.22,2.141,2.186,3.264,3.337
			c1.964,2.014,2.487,2.443,3.385,3.236c0.457,0.404,0.73,0.679,0.351,1.026c-0.515,0.471-1.121-0.256-2.07-1.182
			c-1.029-1.003-3.339-3.423-5.098-5.332c-1.759-1.91-3.678-3.954-3.678-3.954s-1.499-0.275-2.671-1.085
			c-0.977-0.675-1.709-1.381-1.933-1.865c-0.139-0.301-0.54-1.259-0.247-1.866c0.257-0.535,1.045-0.656,1.753-0.27
			c0.708,0.386,3.267,3.938,3.267,3.938s1.468-0.115,2.996-0.293c7.396-0.864,9.381-1.769,14.267-5.572
			c1.659-1.291,3.646-3.343,4.312-3.965c0.665-0.623,1.541-1.05,2.506-0.707c0.966,0.343,0.862,1.286,1.312,3.796
			c0.45,2.51,1.957,7.826,3.411,15.683c1.931,10.431-1.42,15.005-3.522,17.344c-2.104,2.339-6.398,5.684-12.504,6.063
			c-5.292,0.328-10.875-2.787-14.181-6.608c-3.547-4.099-3.111-8.711-2.231-10.663c0.879-1.952,2.016-3.004,3.454-4.484
			c1.437-1.48,2.489-1.63,2.725-1.416C246.104,192.666,245.931,193.073,245.716,193.417 M240.146,181.65
			c0.747,0.714,1.838,1.329,1.838,1.329s-1.262-1.447-1.586-1.809c-0.456-0.512-0.916-0.884-1.016-0.847
			C239.382,180.324,239.584,181.113,240.146,181.65"/>
		<path clip-path="url(#SVGID_42_)" fill="#231F20" d="M194.35,212.148c-0.497-0.226-0.734-0.965-0.427-1.563
			c0.203-0.395,1.325-0.657,2.611-0.919c1.285-0.262,21.163-4.687,27.879-5.635c10.088-1.423,11.918-0.463,12.165,0.63
			c0.207,0.917-0.4,1.417-5.227,2.467c-4.828,1.049-8.725,1.416-8.771,1.987c-0.049,0.614,0.827,0.689,6.127-0.361
			c5.3-1.049,10.888-2.702,15.454-3.49c4.565-0.787,12.331-1.889,21.226-2.177c8.895-0.289,21.042,0.866,25.66,1.417
			s14.859,1.743,15.069,1.874s0.131,0.682-0.944,0.734c-1.076,0.053-24.961-3.5-38.211-2.949c-13.25,0.55-23.325,2.23-29.412,3.752
			c-6.087,1.521-12.279,2.521-14.431,2.544c-3.099,0.035-2.42-1.501-2.125-1.81c0.559-0.585,1.862-0.766,4.592-1.338
			c3.008-0.63,9.122-1.806,9.057-2.28c-0.075-0.547-3.842-0.536-8.585,0.024c-5.848,0.69-27.044,6.282-28.933,6.807
			C195.235,212.386,194.847,212.374,194.35,212.148"/>
		<polygon clip-path="url(#SVGID_42_)" points="293.159,195.643 293.159,197.167 295.07,197.167 295.07,198.327 293.159,198.327 
			293.159,201 291.574,201 291.574,194.405 295.941,194.405 295.941,195.643 		"/>
		<path clip-path="url(#SVGID_42_)" d="M299.689,201.188c-1.644,0-2.664-1.02-2.664-2.406v-2.159c0-1.396,1.021-2.396,2.664-2.396
			s2.654,1,2.654,2.396v2.159C302.344,200.168,301.333,201.188,299.689,201.188 M300.739,196.554c0-0.604-0.356-1.06-1.05-1.06
			c-0.703,0-1.05,0.456-1.05,1.06v2.307c0,0.594,0.347,1.05,1.05,1.05c0.693,0,1.05-0.456,1.05-1.05V196.554z"/>
		<path clip-path="url(#SVGID_42_)" d="M306.378,201.188c-1.604,0-2.584-0.911-2.584-2.159v-4.624h1.604v4.565
			c0,0.584,0.347,0.941,1.021,0.941c0.673,0,1.01-0.357,1.01-0.941v-4.565h1.516v4.624
			C308.943,200.267,308.013,201.188,306.378,201.188"/>
		<polygon clip-path="url(#SVGID_42_)" points="314.514,201 312.543,198.069 312.008,197.237 312.008,201 310.542,201 
			310.542,194.405 311.889,194.405 313.811,197.385 314.315,198.208 314.315,194.405 315.781,194.405 315.781,201 		"/>
		<path clip-path="url(#SVGID_42_)" d="M320.055,201h-2.635v-6.595h2.635c1.763,0,2.564,1.01,2.564,2.367v1.921
			C322.619,200.05,321.817,201,320.055,201 M321.024,196.722c0-0.693-0.366-1.049-1.089-1.049h-0.932v4.06h0.932
			c0.723,0,1.089-0.357,1.089-1.05V196.722z"/>
		<polygon clip-path="url(#SVGID_42_)" points="324.108,201 324.108,194.405 328.555,194.405 328.555,195.682 325.693,195.682 
			325.693,197.079 327.693,197.079 327.693,198.108 325.693,198.108 325.693,199.673 328.555,199.673 328.555,201 		"/>
		<path clip-path="url(#SVGID_42_)" d="M334.065,201.03c-0.524,0-0.732-0.407-0.742-1.02v-0.981
			c-0.01-0.416-0.188-0.683-0.723-0.683h-1.05V201h-1.585v-6.595h2.872c1.387,0,2.01,0.673,2.01,1.663v0.465
			c0,0.664-0.307,1.09-1.039,1.268c0.772,0.109,1.06,0.634,1.06,1.188v0.941c0,0.347,0.099,0.584,0.307,0.783v0.317H334.065z
			 M333.283,196.197c0-0.357-0.178-0.594-0.683-0.594h-1.05v1.762h1.02c0.484,0,0.713-0.217,0.713-0.633V196.197z"/>
		
			<path clip-path="url(#SVGID_42_)" fill="none" stroke="#000000" stroke-width="1.221" stroke-linejoin="round" stroke-miterlimit="10" d="
			M289.053,34.128c0,0,1.997-0.92,3.072,2.163c1.076,3.084,2.987,9.026,2.987,9.026l5.212-0.447"/>
		
			<path clip-path="url(#SVGID_42_)" fill="none" stroke="#000000" stroke-width="1.221" stroke-linejoin="round" stroke-miterlimit="10" d="
			M295.157,45.317l-1.75,1.849v2.421h13.283c0,0,1.222-0.063,1.798,0.99"/>
		
			<polyline clip-path="url(#SVGID_42_)" fill="none" stroke="#231F20" stroke-width="1.221" stroke-linejoin="round" stroke-miterlimit="10" points="
			298.945,45.1 297.071,47.167 297.071,49.383 		"/>
		
			<circle clip-path="url(#SVGID_42_)" fill="none" stroke="#231F20" stroke-width="1.221" stroke-linecap="round" stroke-linejoin="round" stroke-miterlimit="10" cx="292.673" cy="52.031" r="1.152"/>
		
			<circle clip-path="url(#SVGID_42_)" fill="none" stroke="#231F20" stroke-width="1.221" stroke-linecap="round" stroke-linejoin="round" stroke-miterlimit="10" cx="305.817" cy="52.031" r="1.151"/>
		<path clip-path="url(#SVGID_42_)" d="M293.82,35.41l2.68,7.9l12.99-1.22v-6.75L293.82,35.41z M297.92,38.37c-0.55,0-1-0.44-1-0.99
			c0-0.55,0.45-1,1-1s0.99,0.45,0.99,1C298.91,37.93,298.47,38.37,297.92,38.37 M300.21,41.36c-0.55,0-0.99-0.44-0.99-0.99
			c0-0.55,0.44-1,0.99-1s1,0.45,1,1C301.21,40.92,300.76,41.36,300.21,41.36 M302.22,38.37c-0.55,0-0.989-0.44-0.989-0.99
			c0-0.55,0.439-1,0.989-1s1,0.45,1,1C303.22,37.93,302.77,38.37,302.22,38.37 M304.52,41.36c-0.55,0-1-0.44-1-0.99
			c0-0.55,0.45-1,1-1c0.551,0,1,0.45,1,1C305.52,40.92,305.07,41.36,304.52,41.36 M306.53,38.37c-0.55,0-0.99-0.44-0.99-0.99
			c0-0.55,0.44-1,0.99-1s1,0.45,1,1C307.53,37.93,307.08,38.37,306.53,38.37"/>
		
			<polygon clip-path="url(#SVGID_42_)" fill="none" stroke="#000000" stroke-width="1.221" stroke-linecap="round" stroke-miterlimit="10" points="
			293.922,35.411 296.649,43.308 309.692,42.085 309.692,35.34 		"/>
		<path clip-path="url(#SVGID_42_)" fill="#FFFFFF" d="M236.301,4.515h-2.68c-0.402,0-1.34,0.632-1.34,1.34v2.68h4.02v4.02h-4.02
			v9.379h-4.02v-9.379h-4.019v-4.02h4.019v-2.68c0-2.955,2.628-5.36,5.444-5.36h2.596V4.515z"/>
		<path clip-path="url(#SVGID_42_)" fill="#0A9574" d="M417.437,66.82h15.429c0.793,0,1.438-0.631,1.438-1.41
			c0-0.779-0.645-1.41-1.438-1.41h-15.429c-0.793,0-1.437,0.631-1.437,1.41C416,66.189,416.644,66.82,417.437,66.82"/>
		<path clip-path="url(#SVGID_42_)" fill="#0A9574" d="M446,72.258c0-0.027-0.007-0.052-0.008-0.078
			c0.035-0.435-0.132-0.881-0.497-1.185l-4.602-3.839c-0.604-0.505-1.511-0.434-2.024,0.16c-0.514,0.592-0.441,1.482,0.163,1.987
			l1.851,1.545h-23.446c-0.794,0-1.437,0.631-1.437,1.41c0,0.778,0.643,1.41,1.437,1.41h23.428l-1.832,1.529
			c-0.604,0.505-0.677,1.394-0.163,1.987c0.514,0.593,1.421,0.665,2.024,0.16l4.602-3.839c0.361-0.301,0.526-0.74,0.497-1.171
			C445.994,72.309,446,72.285,446,72.258"/>
		<path clip-path="url(#SVGID_42_)" fill="#0A9574" d="M432.866,77.705h-15.43c-0.794,0-1.437,0.631-1.437,1.41
			s0.643,1.41,1.437,1.41h15.43c0.793,0,1.436-0.631,1.436-1.41S433.659,77.705,432.866,77.705"/>
		<path clip-path="url(#SVGID_42_)" fill="#0A9574" d="M417.437,98.873h15.429c0.793,0,1.438-0.643,1.438-1.436
			c0-0.794-0.645-1.437-1.438-1.437h-15.429c-0.793,0-1.437,0.643-1.437,1.437C416,98.23,416.644,98.873,417.437,98.873"/>
		<path clip-path="url(#SVGID_42_)" fill="#0A9574" d="M417.437,105.768h15.429c0.793,0,1.438-0.643,1.438-1.436
			c0-0.794-0.645-1.437-1.438-1.437h-15.429c-0.793,0-1.437,0.643-1.437,1.437C416,105.125,416.644,105.768,417.437,105.768"/>
		<path clip-path="url(#SVGID_42_)" fill="#0A9574" d="M432.866,109.964h-15.43c-0.794,0-1.437,0.643-1.437,1.437
			c0,0.793,0.643,1.436,1.437,1.436h15.43c0.793,0,1.436-0.643,1.436-1.436C434.302,110.607,433.659,109.964,432.866,109.964"/>
		<path clip-path="url(#SVGID_42_)" fill="#0A9574" d="M433.55,142.885c0.73,0.73,0.73,1.93,0,2.67c-0.74,0.73-1.93,0.73-2.67,0
			l-5.83-5.83l-5.83,5.83c-0.739,0.73-1.93,0.73-2.67,0c-0.729-0.74-0.729-1.94,0-2.67l5.83-5.83l-5.83-5.83
			c-0.729-0.74-0.729-1.93,0-2.67c0.74-0.74,1.931-0.74,2.67,0l5.83,5.83l5.83-5.83c0.74-0.74,1.93-0.74,2.67,0
			c0.73,0.74,0.73,1.93,0,2.67l-5.83,5.83L433.55,142.885z"/>
		<path clip-path="url(#SVGID_42_)" fill="#FFFFFF" d="M425.69,168.217c0.409,0.41,0.409,1.07,0,1.48c-0.4,0.4-1.061,0.4-1.471,0
			l-3.22-3.22l-3.22,3.22c-0.41,0.4-1.07,0.4-1.48,0c-0.399-0.41-0.399-1.07,0-1.48l3.22-3.22l-3.22-3.22
			c-0.399-0.41-0.399-1.07,0-1.47c0.41-0.41,1.07-0.41,1.48,0l3.22,3.22l3.22-3.22c0.41-0.41,1.07-0.41,1.471,0
			c0.409,0.4,0.409,1.06,0,1.47l-3.221,3.22L425.69,168.217z"/>
	</g>
</g>
</svg>
