<?xml version="1.0" encoding="UTF-8"?>
<svg width="97px" height="71px" viewBox="0 0 97 71" version="1.1" xmlns="http://www.w3.org/2000/svg" xmlns:xlink="http://www.w3.org/1999/xlink">
    <!-- Generator: Sketch 48.1 (47250) - http://www.bohemiancoding.com/sketch -->
    <title>man-and-woman</title>
    <desc>Created with Sketch.</desc>
    <defs></defs>
    <g id="Главный-экран-Copy" stroke="none" stroke-width="1" fill="none" fill-rule="evenodd" transform="translate(-159.000000, -307.000000)">
        <g id="man-and-woman" transform="translate(159.000000, 307.000000)" fill="#FFFFFF" fill-rule="nonzero">
            <path d="M59.6226667,53.177393 L48.1443333,50.3731479 L47.5364667,48.004545 C55.4290333,46.6879375 59.4965667,44.3709663 59.6808667,44.2677029 C60.1497,43.9934097 60.4536333,43.4996818 60.4827333,42.9575493 C60.5150667,42.4121898 60.2661,41.8926461 59.8263667,41.5699482 C59.7746333,41.5312244 54.4590333,37.213526 54.4590333,22.2435688 C54.4590333,9.44214162 51.3809,2.95268612 45.3119333,2.95268612 L44.4551,2.95268612 C42.2887667,0.910008181 40.6494667,0.00645395873 36.2715333,0.00645395873 C30.5711667,0.00645395873 18.0808,5.60526316 18.0808,22.2435688 C18.0808,37.216753 12.7490333,41.5409054 12.7134667,41.5699482 C12.2737333,41.8894191 12.028,42.4089628 12.0571,42.9510954 C12.0829667,43.4932279 12.3804333,43.9837288 12.8492667,44.258022 C13.0303333,44.3645123 17.0623,46.6911644 25.0033667,48.010999 L24.3987333,50.3699209 L12.9171667,53.174166 C5.31236667,55.0329061 0,61.6966185 0,69.3832833 C0,70.2739296 0.724266667,70.996773 1.61666667,70.996773 L70.9231667,70.996773 C71.8155667,70.996773 72.5398333,70.2674757 72.5398333,69.3800564 C72.5398333,61.6998455 67.2307,55.0393601 59.6226667,53.177393 Z M3.33033333,67.7697937 C3.99963333,62.2742478 8.0704,57.6822562 13.6867,56.304336 L26.1091667,53.2709754 C26.6847,53.1289883 27.1406,52.6804381 27.2893333,52.1028088 L28.5729667,47.075175 C28.6861333,46.6298518 28.6053,46.1554859 28.3498667,45.7747023 C28.0912,45.3939187 27.6838,45.1422143 27.2246667,45.0776748 C21.9834333,44.3677393 18.3427,43.1511681 16.3348,42.3315153 C18.3168333,39.6660304 21.3109,33.7380693 21.3109,22.2403418 C21.3109,6.61208072 33.3001,3.23020634 36.2683,3.23020634 C39.9543,3.23020634 40.74,3.82719753 42.6670667,5.71498046 C42.971,6.01186256 43.3784,6.17643851 43.8019667,6.17643851 L45.3119333,6.17643851 C50.4594,6.17643851 51.2257,16.2413871 51.2257,22.2403418 C51.2257,33.7283883 54.2133,39.6563494 56.1985667,42.3250614 C54.1777333,43.1479411 50.5240667,44.3612853 45.3119333,45.0744478 C44.8528,45.1357604 44.4454,45.3906918 44.1867333,45.7714753 C43.9313,46.1522589 43.8504667,46.6266249 43.9636333,47.071948 L45.2505,52.1060358 C45.3992333,52.6836651 45.8519,53.1322153 46.4306667,53.2742023 L58.8499,56.3075629 C64.4629667,57.6822562 68.5337333,62.2710208 69.2062667,67.7697937 L3.33033333,67.7697937 Z M84.0828333,53.174166 L72.6045,50.3699209 L71.6636,46.7008454 C74.7223333,43.7158895 76.8175333,39.6402145 77.4609667,35.4548223 C79.1843333,34.9514135 80.51,33.4831379 80.7460333,31.6502136 L81.4961667,25.7577493 C81.6610667,24.4863194 81.2666,23.1987547 80.4194667,22.2274339 C79.9247667,21.6594855 79.3072,21.2302972 78.6185,20.959231 L78.8836333,15.5863103 L79.9732667,14.5181802 C81.7128,12.7110717 83.1548667,9.61639851 80.1543333,5.13735115 C77.8716,1.72966094 74.0013,0 68.6566,0 C66.5032,0 61.4592,0 56.8387667,3.20761749 C56.1048,3.71425325 55.9237333,4.72107081 56.4346,5.45359513 C56.939,6.18611944 57.9478,6.36683029 58.6817667,5.85696755 C62.0185667,3.53999636 65.5978667,3.22697937 68.6566,3.22697937 C72.8567,3.22697937 75.8184333,4.4725934 77.4642,6.9283247 C79.3912667,9.80356331 78.6346667,11.2460231 77.6776,12.2463867 L76.1708667,13.7211163 C75.8831,14.0050904 75.7085,14.389101 75.6891,14.7924734 L75.3237333,22.1661213 C75.3011,22.6049905 75.4595333,23.0341787 75.7602333,23.3536497 C76.0577,23.6698936 76.4780333,23.8570584 76.9177667,23.8602854 C77.3284,23.8635124 77.7164,24.0377693 77.9783,24.3411054 C78.1205667,24.5056813 78.3533667,24.8541951 78.2887,25.3479229 L77.5385667,31.2403872 C77.4512667,31.908372 76.8563333,32.4117807 76.0027333,32.4117807 C75.1588333,32.4117807 74.4604333,33.0571766 74.3925333,33.8961913 C74.0595,38.0396328 71.9643,42.1766203 68.7956333,44.9550495 C68.3397333,45.358422 68.1457333,45.978002 68.2977,46.5685392 L69.7139,52.1028088 C69.8626333,52.6804381 70.3153,53.1289883 70.8940667,53.2709754 L83.3133,56.3075629 C88.9263667,57.6822562 92.9971333,62.2710208 93.6696667,67.7697937 L79.2166667,67.7697937 L79.2166667,71 L95.3833333,70.996773 C96.2757333,70.996773 97,70.2674757 97,69.3768294 C97,61.6966185 91.6908667,55.0361331 84.0828333,53.174166 Z" id="Shape"></path>
        </g>
    </g>
</svg>