<svg xmlns="http://www.w3.org/2000/svg" xmlns:xlink="http://www.w3.org/1999/xlink" width="35" height="25" viewBox="0 0 35 25">
    <defs>
        <path id="a" d="M0 24h34.556V.292H0z"/>
        <path id="c" d="M34.558.293H0v13.678h34.558V.293z"/>
    </defs>
    <g fill="none" fill-rule="evenodd">
        <mask id="b" fill="#fff">
            <use xlink:href="#a"/>
        </mask>
        <path fill="#000" d="M32.747.291H1.81C.811.291 0 1.081 0 2.051V22.24C0 23.21.81 24 1.81 24h30.938c1 0 1.81-.789 1.81-1.76V2.052c0-.972-.81-1.76-1.81-1.76zM1.81 22.24h30.938V2.053H1.81V22.24z" mask="url(#b)"/>
        <g>
            <mask id="d" fill="#fff">
                <use xlink:href="#c"/>
            </mask>
            <path fill="#000" d="M32.747 3.83h.004-.004zm.004-3.537H1.81C1.013.293.31.802.079 1.546c-.232.745.061 1.551.723 1.984l15.47 10.141c.304.2.655.3 1.006.3.352 0 .703-.1 1.007-.3L33.718 3.555c.505-.314.84-.865.84-1.493 0-.977-.807-1.77-1.807-1.77zm-.004 1.769l-15.469 10.14L1.81 2.062h30.938zm0 0h.004-.004z" mask="url(#d)"/>
        </g>
    </g>
</svg>
