<svg xmlns="http://www.w3.org/2000/svg" xmlns:xlink="http://www.w3.org/1999/xlink" preserveAspectRatio="xMidYMid" width="57" height="57" viewBox="0 0 57 57">
  <defs>
    <style>
      .cls-1 {
        fill: #fff;
        fill-rule: evenodd;
      }
    </style>
  </defs>
  <path d="M48.652,48.653 C43.269,54.035 36.113,57.000 28.503,57.000 C28.502,57.000 28.501,57.000 28.500,57.000 C20.886,56.999 13.729,54.035 8.347,48.653 C2.965,43.269 -0.000,36.112 -0.000,28.500 C-0.000,20.887 2.965,13.730 8.347,8.347 C13.730,2.964 20.886,-0.001 28.500,-0.001 C36.112,-0.001 43.269,2.964 48.652,8.347 C54.034,13.730 56.999,20.887 56.999,28.500 C56.999,36.112 54.034,43.269 48.652,48.653 ZM46.396,10.603 C41.616,5.823 35.261,3.190 28.500,3.190 C21.738,3.190 15.383,5.823 10.603,10.603 C5.823,15.384 3.190,21.739 3.190,28.500 C3.190,35.260 5.823,41.616 10.603,46.397 C15.382,51.176 21.738,53.809 28.500,53.810 C28.500,53.810 28.502,53.810 28.503,53.810 C35.262,53.810 41.615,51.177 46.396,46.397 C51.176,41.616 53.809,35.260 53.809,28.500 C53.809,21.739 51.176,15.384 46.396,10.603 ZM40.048,40.049 C39.737,40.360 39.328,40.515 38.921,40.515 C38.512,40.515 38.104,40.360 37.792,40.049 L28.499,30.756 L19.207,40.049 C18.895,40.360 18.487,40.515 18.078,40.515 C17.671,40.515 17.262,40.360 16.951,40.049 C16.327,39.425 16.327,38.415 16.951,37.793 L26.244,28.500 L16.951,19.207 C16.327,18.584 16.327,17.574 16.951,16.951 C17.573,16.328 18.583,16.328 19.207,16.951 L28.499,26.244 L37.792,16.951 C38.416,16.328 39.426,16.328 40.048,16.951 C40.671,17.574 40.671,18.584 40.048,19.207 L30.755,28.500 L40.048,37.793 C40.671,38.415 40.671,39.425 40.048,40.049 Z" class="cls-1"/>
</svg>
