<!-- Generator: Adobe Illustrator 19.0.0, SVG Export Plug-In  -->
<svg version="1.1"
	 xmlns="http://www.w3.org/2000/svg" xmlns:xlink="http://www.w3.org/1999/xlink" xmlns:a="http://ns.adobe.com/AdobeSVGViewerExtensions/3.0/"
	 x="0px" y="0px" width="247.1px" height="315.5px" viewBox="0 0 247.1 315.5" style="enable-background:new 0 0 247.1 315.5;"
	 xml:space="preserve">
<style type="text/css">
	.st0{clip-path:url(#SVGID_2_);}
	.st1{clip-path:url(#SVGID_4_);fill:#9A252E;}
	.st2{clip-path:url(#SVGID_4_);fill:#59161B;}
	.st3{opacity:0.1;clip-path:url(#SVGID_4_);}
	.st4{clip-path:url(#SVGID_6_);fill:#FFFFFF;}
	.st5{clip-path:url(#SVGID_4_);fill:#EB5765;}
	.st6{clip-path:url(#SVGID_4_);fill:#E63744;}
	.st7{clip-path:url(#SVGID_4_);fill:#FFFFFF;}
	.st8{clip-path:url(#SVGID_4_);fill:#C02E39;}
	.st9{clip-path:url(#SVGID_8_);}
	.st10{clip-path:url(#SVGID_10_);fill:#9A252E;}
	.st11{clip-path:url(#SVGID_10_);fill:#59161B;}
	.st12{opacity:0.1;clip-path:url(#SVGID_10_);}
	.st13{clip-path:url(#SVGID_12_);fill:#FFFFFF;}
	.st14{clip-path:url(#SVGID_10_);fill:#EB5765;}
	.st15{clip-path:url(#SVGID_10_);fill:#E63744;}
	.st16{clip-path:url(#SVGID_10_);fill:#FFFFFF;}
	.st17{clip-path:url(#SVGID_10_);fill:#C02E39;}
</style>
<defs>
</defs>
<g>
	<defs>
		<rect id="SVGID_1_" x="0" y="0" width="247.1" height="315.5"/>
	</defs>
	<clipPath id="SVGID_2_">
		<use xlink:href="#SVGID_1_"  style="overflow:visible;"/>
	</clipPath>
	<g class="st0">
		<defs>
			<rect id="SVGID_3_" x="0" y="0" width="247.1" height="315.5"/>
		</defs>
		<clipPath id="SVGID_4_">
			<use xlink:href="#SVGID_3_"  style="overflow:visible;"/>
		</clipPath>
		<path class="st1" d="M160.5,18.1C146.7,12.7,134.2,6.5,123.6,0c-10.7,6.5-23.2,12.7-36.9,18.1C52.4,31.6,20.1,36.1,3,31
			c-1.5-0.5-3,0.7-3,2.3V147c0,55.6,28.3,107.4,75.1,137.4l48.5,31.1l48.5-31.1c46.8-30,75.1-81.8,75.1-137.4V33.3
			c0-1.6-1.5-2.7-3-2.3C227,36,194.7,31.6,160.5,18.1"/>
		<path class="st2" d="M82,273.7c-21.2-13.6-38.7-32.4-50.8-54.5c-12.1-22.1-18.4-47-18.4-72.2V45.6l4.7,0.1c0.8,0,1.5,0,2.3,0
			c20.2,0,45.7-5.6,71.6-15.8c10.6-4.2,20.7-8.9,30-14l2.2-1.2l2.2,1.2c9.3,5.1,19.4,9.8,30,14c25.9,10.2,51.3,15.8,71.6,15.8
			c0.8,0,1.5,0,2.3,0l4.7-0.1V147c0,25.2-6.4,50.1-18.4,72.2c-12.1,22.1-29.6,40.9-50.8,54.5l-41.6,26.7L82,273.7z"/>
		<path class="st1" d="M84.5,269.8c-20.5-13.2-37.5-31.4-49.2-52.8c-11.7-21.4-17.9-45.6-17.9-70V50.4c0.8,0,1.6,0,2.4,0
			c20.8,0,46.8-5.7,73.3-16.1c10.8-4.3,21.1-9,30.6-14.2c9.5,5.2,19.7,10,30.6,14.2c26.4,10.4,52.4,16.1,73.3,16.1
			c0.8,0,1.6,0,2.4,0V147c0,24.4-6.2,48.6-17.9,70c-11.7,21.4-28.7,39.7-49.2,52.8l-39.1,25.1L84.5,269.8z"/>
		<g class="st3">
			<g>
				<defs>
					<rect id="SVGID_5_" x="123.6" y="0" width="123.6" height="315.5"/>
				</defs>
				<clipPath id="SVGID_6_">
					<use xlink:href="#SVGID_5_"  style="overflow:visible;"/>
				</clipPath>
				<path class="st4" d="M160.5,18.1C146.7,12.7,134.2,6.5,123.6,0c0,0,0,0,0,0v315.5l48.5-31.1c46.8-30,75.1-81.8,75.1-137.4V33.3
					c0-1.6-1.5-2.7-3-2.3C227,36,194.7,31.6,160.5,18.1"/>
			</g>
		</g>
		<path class="st5" d="M159.8,95.8c0-20-16.2-36.2-36.2-36.2c-20,0-36.2,16.2-36.2,36.2c0,12.2,6,23,15.2,29.5c0,0.1,0,0.2,0,0.3
			l0,6.1c0,1.6,1.3,2.9,2.9,2.9l7.5,0V147c0,0.8,0.4,1.9,0.9,2.5l3.8,4.4c0.5,0.6,0.5,1.6,0,2.2l-3.8,4.4c-0.5,0.6-1,1.7-1,2.5
			l0,10.2c0,0.8,0.4,1.9,0.9,2.5l3.8,4.4c0.5,0.6,0.5,1.6,0,2.2l-3.8,4.4c-0.5,0.6-0.5,1.6,0,2.2l3.8,4.4c0.5,0.6,0.5,1.6,0,2.2
			l-3.8,4.4c-0.5,0.6-1,1.7-0.9,2.5v10.2c0,0.8,0.4,1.9,0.9,2.5l3.8,4.4c0.5,0.6,0.5,1.6,0,2.2l-3.8,4.4c-0.5,0.6-0.5,1.6,0,2.2
			l3.9,4.4c0.5,0.6,0.5,1.6,0,2.2l-3,3.4c-0.5,0.6-0.5,1.5,0.1,2l9.5,8.7c0.6,0.5,1.5,0.5,2.1-0.1l6.6-6.9c0.5-0.6,1-1.7,1-2.5
			l0-104.4h7.5c1.6,0,2.9-1.3,2.9-2.9l0-6.1c0-0.1,0-0.2,0-0.3C153.8,118.8,159.8,108,159.8,95.8 M130,237.6c0,0.8-0.6,1.4-1.4,1.4
			c-0.8,0-1.4-0.7-1.4-1.4l0-99.8c0-0.8,0.6-1.4,1.4-1.4c0.8,0,1.4,0.6,1.4,1.4L130,237.6z M127.8,90.7l4.4,15.4
			c0.6,1.9-0.9,3.9-2.9,3.9h-11.6c-2,0-3.5-1.9-2.9-3.9l4.4-15.4c-4.1-1.7-6.9-5.7-6.9-10.3c0-6.2,5-11.2,11.2-11.2
			c6.2,0,11.2,5,11.2,11.2C134.7,85.1,131.9,89.1,127.8,90.7"/>
		<path class="st6" d="M159.8,95.8c0-20-16.2-36.2-36.2-36.2l0,9.6c6.2,0,11.2,5,11.2,11.2c0,4.7-2.9,8.7-6.9,10.3l4.4,15.4
			c0.6,1.9-0.9,3.9-2.9,3.9h-5.8l0,137.6l0.9,0.8c0.6,0.5,1.5,0.5,2.1-0.1l6.6-6.9c0.5-0.6,1-1.7,1-2.5l0-104.4h7.5
			c1.6,0,2.9-1.3,2.9-2.9l0-6.1c0-0.1,0-0.2,0-0.3C153.8,118.8,159.8,108,159.8,95.8"/>
		<path class="st7" d="M137.5,125.7c0.6-0.3,0.9-1.1,0.6-1.7c-0.3-0.6-1.1-0.9-1.7-0.6c-2.2,1-4.5,1.8-6.8,2.3c-0.6,0.1-1,0.6-1,1.2
			c0,0.1,0,0.2,0,0.3c0.1,0.7,0.8,1.1,1.5,1C132.7,127.6,135.1,126.8,137.5,125.7"/>
		<path class="st7" d="M156.1,96.3c0-0.7-0.6-1.3-1.3-1.3c-0.7,0-1.3,0.6-1.3,1.3c0,9.8-4.8,19-12.9,24.6c-0.4,0.2-0.5,0.6-0.5,1
			c0,0.2,0.1,0.5,0.2,0.7c0.4,0.6,1.2,0.7,1.8,0.3C150.8,116.9,156.1,107,156.1,96.3"/>
		<path class="st6" d="M117,125.4c0-0.7-0.6-1.3-1.3-1.3l-14.7,0c0.5,0.4,1,0.9,1.6,1.3c0,0.1,0,0.2,0,0.3l0,1l13.1,0
			C116.4,126.6,117,126.1,117,125.4"/>
		<path class="st8" d="M130,237.6l0-99.8c0-0.8-0.6-1.4-1.4-1.4c-0.8,0-1.4,0.6-1.4,1.4l0,99.8c0,0.8,0.6,1.4,1.4,1.4
			C129.3,239.1,130,238.4,130,237.6"/>
		<path class="st7" d="M127.7,237.6v-99.8c0-0.4-0.1-0.8-0.2-1c-0.3,0.3-0.5,0.6-0.5,1l0,99.8c0,0.4,0.2,0.8,0.5,1
			C127.7,238.4,127.7,238,127.7,237.6"/>
		<path class="st6" d="M123.6,110.1h-5.8c-2,0-3.5-1.9-2.9-3.9l4.8-16.7c-3.9-1.7-6.5-5.8-5.8-10.4c0.6-4.4,4.2-7.9,8.6-8.4
			c0.4,0,0.8-0.1,1.1-0.1V68c-0.5,0-0.9,0-1.4,0.1c-5.5,0.6-10.1,5.1-10.9,10.6c-0.7,4.8,1.5,9.4,5.4,12l-4.3,14.8
			c-0.5,1.7-0.2,3.5,0.9,4.9c1.1,1.4,2.7,2.2,4.5,2.2h5.8V110.1z"/>
		<path class="st5" d="M123.6,110.1h5.8c2,0,3.5-1.9,2.9-3.9l-4.8-16.7c3.9-1.7,6.5-5.8,5.8-10.4c-0.6-4.4-4.2-7.9-8.6-8.4
			c-0.4,0-0.8-0.1-1.1-0.1V68c0.5,0,0.9,0,1.4,0.1c5.5,0.6,10.1,5.1,10.9,10.6c0.7,4.8-1.5,9.4-5.4,12l4.3,14.8
			c0.5,1.7,0.2,3.5-0.9,4.9c-1.1,1.4-2.7,2.2-4.5,2.2h-5.8V110.1z"/>
	</g>
</g>
</svg>
