<!-- Generator: Adobe Illustrator 19.0.0, SVG Export Plug-In  -->
<svg version="1.1"
	 xmlns="http://www.w3.org/2000/svg" xmlns:xlink="http://www.w3.org/1999/xlink" xmlns:a="http://ns.adobe.com/AdobeSVGViewerExtensions/3.0/"
	 x="0px" y="0px" width="56px" height="56px" viewBox="0 0 56 56" style="enable-background:new 0 0 56 56;" xml:space="preserve">
<style type="text/css">
	.st0{fill:#0F9675;}
	.st1{fill:#FFFFFF;}
</style>
<defs>
</defs>
<path class="st0" d="M56,28c0,15.5-12.5,28-28,28S0,43.5,0,28S12.5,0,28,0S56,12.5,56,28"/>
<path class="st1" d="M22.1,24.7h2.5v-1.1v-1.1v-0.2c0-1.1,0-2.7,0.8-3.7c0.8-1.1,1.9-1.8,3.8-1.8c3.1,0,4.4,0.4,4.4,0.4L33,20.9
	c0,0-1-0.3-2-0.3c-1,0-1.8,0.3-1.8,1.3v0.4v1.3v1.1h3.9l-0.3,3.6h-3.7v12.4h-4.6V28.2h-2.5V24.7z"/>
</svg>
