<!-- Generator: Adobe Illustrator 19.0.0, SVG Export Plug-In  -->
<svg version="1.1"
	 xmlns="http://www.w3.org/2000/svg" xmlns:xlink="http://www.w3.org/1999/xlink" xmlns:a="http://ns.adobe.com/AdobeSVGViewerExtensions/3.0/"
	 x="0px" y="0px" width="56px" height="56px" viewBox="0 0 56 56" style="enable-background:new 0 0 56 56;" xml:space="preserve">
<style type="text/css">
	.st0{fill:#0F9675;}
	.st1{fill:#FFFFFF;}
</style>
<defs>
</defs>
<path class="st0" d="M56,28c0,15.5-12.5,28-28,28C12.5,56,0,43.5,0,28S12.5,0,28,0C43.5,0,56,12.5,56,28"/>
<path class="st1" d="M32.2,19.4v-2.9h-12c-1.1,0-1.9,0.9-1.9,2v19.1c0,1.1,0.9,1.9,1.9,1.9h15.6c1.1,0,1.9-0.9,1.9-1.9V22.1h-2.9
	C33.4,22.1,32.2,20.9,32.2,19.4"/>
<path class="st1" d="M34.1,16.5v2.6c0,0.6,0.5,1.1,1.1,1.1h2.6v0L34.1,16.5z"/>
</svg>
