<!-- Generator: Adobe Illustrator 19.0.0, SVG Export Plug-In  -->
<svg version="1.1"
	 xmlns="http://www.w3.org/2000/svg" xmlns:xlink="http://www.w3.org/1999/xlink" xmlns:a="http://ns.adobe.com/AdobeSVGViewerExtensions/3.0/"
	 x="0px" y="0px" width="56px" height="56px" viewBox="0 0 56 56" style="enable-background:new 0 0 56 56;" xml:space="preserve">
<style type="text/css">
	.st0{fill:#0F9675;}
	.st1{fill:#FFFFFF;}
</style>
<defs>
</defs>
<path class="st0" d="M56,28c0,15.5-12.5,28-28,28S0,43.5,0,28S12.5,0,28,0S56,12.5,56,28"/>
<path class="st1" d="M39.1,36.9c0-3.2-6.6-6.1-8.4-6.4c-0.6-0.1-0.6-1.6-0.6-1.6s1.6-1.6,2-3.7c1,0,1.5-2.3,0.6-3.1
	c0-0.8,1.2-6.6-4.8-6.6s-4.8,5.8-4.8,6.6c-1,0.8-0.4,3.1,0.6,3.1c0.4,2.1,2,3.7,2,3.7s0,1.5-0.6,1.6c-1.8,0.3-8.4,3.2-8.4,6.4
	l2.6,3.6h17.3L39.1,36.9z"/>
</svg>
