<svg xmlns="http://www.w3.org/2000/svg" width="51" height="48" viewBox="0 0 51 48">
    <g fill="none" fill-rule="evenodd">
        <rect width="51" height="48" fill="#FF9661" rx="4"/>
        <g fill="#DE7946">
            <path d="M34.703 30c-.715 0-1.297.62-1.297 1.382v2.855H17.594v-2.855c0-.762-.582-1.382-1.297-1.382S15 30.62 15 31.382v4.236c0 .762.582 1.382 1.297 1.382h18.406c.715 0 1.297-.62 1.297-1.382v-4.236C36 30.62 35.418 30 34.703 30"/>
            <path stroke="#FF9661" d="M24.175 27.465c.362.357.845.535 1.325.535s.96-.178 1.326-.535l5.625-5.483c.732-.71.732-1.87 0-2.584a1.91 1.91 0 0 0-2.651 0l-2.425 2.363v-8.933c0-1.01-.839-1.828-1.875-1.828s-1.875.818-1.875 1.828v8.933l-2.424-2.363a1.91 1.91 0 0 0-2.651 0 1.793 1.793 0 0 0 0 2.584l5.625 5.483z"/>
        </g>
    </g>
</svg>
