<!-- Generator: Adobe Illustrator 19.1.1, SVG Export Plug-In  -->
<svg version="1.1"
	 xmlns="http://www.w3.org/2000/svg" xmlns:xlink="http://www.w3.org/1999/xlink" xmlns:a="http://ns.adobe.com/AdobeSVGViewerExtensions/3.0/"
	 x="0px" y="0px" width="104.3px" height="21.3px" viewBox="0 0 104.3 21.3" style="enable-background:new 0 0 104.3 21.3;"
	 xml:space="preserve">
<style type="text/css">
	.st0{fill:#F3FCFF;}
	.st1{opacity:0.5;fill:#FFFFFF;}
	.st2{fill:#444D62;}
	.st3{fill:#E6A845;}
	.st4{fill:#7386C2;}
	.st5{fill:#616E94;}
	.st6{fill:#596685;}
	.st7{fill:#FFFFFF;}
</style>
<defs>
</defs>
<g>
	<path class="st0" d="M47,2.6c-0.3-0.4-0.8-0.5-1.7-0.5c-0.9,0-1.5,0.3-1.8,0.9c-0.1,0.2-0.2,0.4-0.2,0.7c0,0.5,0.2,1,0.7,1.5
		c0.3,0.3,0.8,0.6,1.3,0.9c0.6,0.3,1,0.6,1.4,0.8c1.5,0.9,2.2,1.9,2.2,3c0,1-0.4,1.7-1.1,2.3c-0.7,0.5-1.6,0.8-2.8,0.8
		c-1.1,0-2.1-0.2-2.7-0.7c-0.7-0.5-1-1-1-1.6c0-0.6,0.2-1,0.7-1.2c0.1-0.1,0.3-0.1,0.5-0.1c0.3,0,0.6,0.1,0.8,0.3
		c0.2,0.2,0.3,0.5,0.3,0.8c0,0.3-0.1,0.6-0.4,0.8c0.4,0.4,1.1,0.6,2,0.6c0.9,0,1.6-0.3,1.9-0.9c0.1-0.2,0.2-0.5,0.2-0.8
		c0-0.5-0.3-1-0.8-1.4c-0.3-0.2-0.7-0.5-1.4-0.9c-0.6-0.4-1.1-0.6-1.5-0.9c-1.3-0.9-2-1.9-2-3.1c0-0.9,0.3-1.7,1-2.2
		c0.7-0.6,1.5-0.8,2.6-0.8c1,0,1.9,0.2,2.5,0.7c0.7,0.4,1,1,1,1.6c0,0.3-0.1,0.6-0.3,0.9c-0.2,0.2-0.5,0.3-0.8,0.3
		c-0.5,0-0.8-0.2-1-0.6c-0.1-0.1-0.1-0.3-0.1-0.4C46.5,3.2,46.6,2.8,47,2.6L47,2.6z"/>
	<path class="st0" d="M52.9,9.9c-0.2,0.3-0.3,0.6-0.3,1c0,0.4,0.1,0.6,0.3,0.8c0.2,0.2,0.4,0.3,0.7,0.3c0.6,0,1.1-0.2,1.5-0.6
		c0.4-0.4,0.6-1,0.6-1.8V8.4c-0.3,0.2-0.7,0.3-1,0.5C54.3,9,54,9.1,53.9,9.1C53.5,9.3,53.1,9.6,52.9,9.9L52.9,9.9z M57.3,11
		c0,0.6,0.1,0.9,0.4,0.9c0.2,0,0.4-0.1,0.5-0.2c0.1-0.2,0.2-0.4,0.2-0.9h0.8c0,0.1,0,0.2,0,0.3c0,0.5-0.1,0.9-0.3,1.2
		c-0.3,0.4-0.7,0.6-1.4,0.6c-0.4,0-0.7-0.1-1-0.3c-0.3-0.2-0.5-0.5-0.6-0.9c-0.7,0.8-1.7,1.2-2.8,1.2c-0.6,0-1.2-0.2-1.6-0.6
		c-0.5-0.4-0.7-0.9-0.7-1.5c0-1.1,0.8-2,2.5-2.5c1.1-0.3,1.7-0.6,1.9-0.7c0.2-0.1,0.3-0.3,0.4-0.4c0.1-0.1,0.1-0.3,0.1-0.5
		c0-0.3-0.1-0.6-0.4-0.8c-0.3-0.2-0.7-0.3-1.2-0.3c-0.5,0-0.9,0.1-1.3,0.4c0.3,0.2,0.4,0.4,0.4,0.7c0,0.3-0.1,0.5-0.3,0.7
		c-0.2,0.2-0.4,0.3-0.7,0.3c-0.3,0-0.5-0.1-0.7-0.3c-0.2-0.2-0.3-0.4-0.3-0.7c0-0.6,0.3-1.1,0.9-1.5c0.6-0.4,1.3-0.6,2.2-0.6
		c1.6,0,2.5,0.5,2.8,1.5c0.1,0.3,0.2,0.7,0.2,1.2V11L57.3,11z"/>
	<path class="st0" d="M61.9,3.5c-0.3,0-0.6-0.1-0.9-0.3c-0.2-0.2-0.4-0.5-0.4-0.8c0-0.3,0.1-0.6,0.4-0.8c0.2-0.2,0.5-0.3,0.8-0.3
		c0.3,0,0.6,0.1,0.8,0.3C63,1.7,63.1,2,63.1,2.3c0,0.3-0.1,0.6-0.4,0.8C62.6,3.4,62.3,3.5,61.9,3.5L61.9,3.5z M60,12
		c0.5,0,0.8,0,0.9-0.1c0.1-0.1,0.2-0.2,0.2-0.3c0-0.1,0-0.2,0-0.4V7c0-0.4,0-0.6-0.1-0.7c-0.1-0.1-0.2-0.2-0.5-0.2H60V5.2
		c0.5,0,0.9,0,1.2-0.1C61.4,5,61.6,5,61.8,5c0.1,0,0.2-0.1,0.4-0.1c0.3,0,0.4,0.1,0.5,0.2c0.1,0.2,0.1,0.4,0.1,0.8v5.3
		c0,0.3,0.1,0.5,0.2,0.6c0.2,0.1,0.5,0.2,1,0.2v0.8h-4V12L60,12z"/>
	<path class="st0" d="M65.4,12c0.4,0,0.8-0.1,0.9-0.2c0.2-0.1,0.3-0.3,0.3-0.6V2.9c0-0.4,0-0.6-0.1-0.7C66.4,2,66.2,2,65.9,2h-0.6
		V1.1c0.5,0,0.9,0,1.2-0.1c0.3-0.1,0.5-0.1,0.6-0.2c0.1,0,0.3-0.1,0.4-0.1c0.3,0,0.4,0.1,0.5,0.2c0.1,0.2,0.1,0.4,0.1,0.8v9.4
		c0,0.3,0.1,0.5,0.2,0.7c0.1,0.1,0.5,0.2,1,0.2v0.8h-4V12L65.4,12z"/>
	<path class="st0" d="M74.7,7.6c1,0,1.7-0.2,2.2-0.7c0.5-0.5,0.8-1.2,0.8-2.2c0-1.2-0.5-2-1.5-2.4c-0.4-0.1-0.8-0.2-1.3-0.2h-1.1
		v5.4H74.7L74.7,7.6z M70.8,12c0.5,0,0.9,0,1-0.1c0.1-0.1,0.2-0.2,0.2-0.3c0-0.1,0-0.2,0-0.4V3c0-0.3-0.1-0.5-0.2-0.6
		c-0.2-0.1-0.6-0.2-1.1-0.2V1.3H75c2.1,0,3.5,0.6,4.1,1.8c0.3,0.5,0.4,1,0.4,1.7S79.4,6,79.1,6.5c-0.7,1.3-2.1,1.9-4.3,1.9
		c-0.1,0-0.2,0-0.3,0h-0.7v2.4c0,0.3,0,0.5,0,0.6c0,0.2,0.1,0.3,0.3,0.4c0.2,0.1,0.7,0.2,1.6,0.2v0.8h-5V12L70.8,12z"/>
	<path class="st0" d="M80.9,12c0.4,0,0.8-0.1,0.9-0.2c0.2-0.1,0.3-0.3,0.3-0.6V2.9c0-0.4,0-0.6-0.1-0.7C81.9,2,81.7,2,81.5,2h-0.6
		V1.1c0.5,0,0.9,0,1.2-0.1c0.3-0.1,0.5-0.1,0.6-0.2c0.1,0,0.3-0.1,0.4-0.1c0.3,0,0.4,0.1,0.5,0.2c0.1,0.2,0.1,0.4,0.1,0.8v9.4
		c0,0.3,0.1,0.5,0.2,0.7c0.1,0.1,0.5,0.2,1,0.2v0.8h-4V12L80.9,12z"/>
	<path class="st0" d="M88.7,9.9c-0.2,0.3-0.3,0.6-0.3,1c0,0.4,0.1,0.6,0.3,0.8c0.2,0.2,0.4,0.3,0.7,0.3c0.6,0,1.1-0.2,1.5-0.6
		c0.4-0.4,0.6-1,0.6-1.8V8.4c-0.3,0.2-0.7,0.3-1,0.5c-0.4,0.1-0.6,0.2-0.7,0.3C89.3,9.3,88.9,9.6,88.7,9.9L88.7,9.9z M93.1,11
		c0,0.6,0.1,0.9,0.4,0.9c0.2,0,0.4-0.1,0.5-0.2c0.1-0.2,0.2-0.4,0.2-0.9H95c0,0.1,0,0.2,0,0.3c0,0.5-0.1,0.9-0.3,1.2
		c-0.3,0.4-0.7,0.6-1.4,0.6c-0.4,0-0.7-0.1-1-0.3c-0.3-0.2-0.5-0.5-0.6-0.9C90.9,12.6,90,13,88.9,13c-0.6,0-1.2-0.2-1.6-0.6
		c-0.5-0.4-0.7-0.9-0.7-1.5c0-1.1,0.8-2,2.5-2.5c1.1-0.3,1.7-0.6,1.9-0.7c0.2-0.1,0.3-0.3,0.4-0.4c0.1-0.1,0.1-0.3,0.1-0.5
		c0-0.3-0.1-0.6-0.4-0.8c-0.3-0.2-0.7-0.3-1.2-0.3c-0.5,0-0.9,0.1-1.3,0.4C88.9,6.4,89,6.6,89,6.9c0,0.3-0.1,0.5-0.3,0.7
		c-0.2,0.2-0.4,0.3-0.7,0.3c-0.3,0-0.5-0.1-0.7-0.3C87.1,7.5,87,7.2,87,6.9c0-0.6,0.3-1.1,0.9-1.5c0.6-0.4,1.3-0.6,2.2-0.6
		c1.6,0,2.5,0.5,2.8,1.5c0.1,0.3,0.2,0.7,0.2,1.2V11L93.1,11z"/>
	<path class="st0" d="M97.4,15.9c0.1,0,0.2,0,0.3,0c0.1,0,0.2,0,0.3-0.1c0.1-0.1,0.2-0.2,0.4-0.3c0.2-0.3,0.4-0.6,0.6-1
		c0.2-0.4,0.3-0.7,0.3-0.9c0-0.2,0-0.4-0.1-0.5C99.1,13,99,12.9,99,12.8c-0.1-0.1-0.1-0.2-0.2-0.3c-0.1-0.1-0.1-0.2-0.2-0.3
		l-2.2-5.5c-0.1-0.3-0.2-0.5-0.3-0.7c-0.1-0.1-0.4-0.2-0.8-0.2V5.1h4.2v0.8c-0.6,0-0.9,0-1.1,0.1c-0.1,0.1-0.2,0.2-0.2,0.3
		c0,0.1,0,0.2,0.1,0.4L100,12l2-5.3c0.1-0.3,0.1-0.5-0.1-0.6c-0.2-0.1-0.6-0.2-1.2-0.2V5.1h3.6v0.8c-0.3,0-0.6,0.1-0.8,0.2
		c-0.2,0.1-0.3,0.3-0.4,0.6l-2.1,5.5c-0.2,0.4-0.3,0.8-0.5,1.2c-0.2,0.4-0.3,0.7-0.5,1.1c-0.4,0.8-0.8,1.3-1.2,1.7
		c-0.4,0.4-0.9,0.6-1.5,0.6c-0.6,0-1-0.1-1.3-0.4c-0.3-0.3-0.5-0.6-0.5-1c0-0.4,0.1-0.7,0.3-0.9c0.2-0.2,0.5-0.3,0.8-0.3
		c0.4,0,0.7,0.2,0.9,0.6c0.1,0.1,0.1,0.2,0.1,0.4C97.6,15.5,97.5,15.7,97.4,15.9L97.4,15.9z"/>
	<path class="st1" d="M52.1,19.9h-0.5L51,18.1l-0.6,1.8h-0.5l-0.8-2.1c0-0.1-0.1-0.2-0.1-0.2c0,0-0.1-0.1-0.2-0.1v-0.3H50v0.3
		c-0.2,0-0.3,0-0.3,0c0,0-0.1,0.1-0.1,0.1c0,0,0,0.1,0,0.1l0.5,1.5l0.7-2h0.4l0.7,2.1l0.5-1.5c0-0.1,0-0.2,0-0.2
		c-0.1,0-0.2-0.1-0.4-0.1v-0.3h1.2v0.3c-0.1,0-0.2,0-0.3,0.1c-0.1,0-0.1,0.1-0.1,0.2L52.1,19.9"/>
	<path class="st1" d="M54.8,20c-0.3,0-0.6-0.1-0.9-0.3c-0.3-0.2-0.4-0.6-0.4-1c0-0.4,0.1-0.8,0.3-1.1c0.2-0.3,0.6-0.4,1-0.4
		c0.6,0,0.9,0.2,1.1,0.7c0.1,0.2,0.1,0.4,0.1,0.5c0,0.2,0,0.3,0,0.3h-1.9c0,0.3,0.1,0.5,0.2,0.7c0.1,0.2,0.3,0.3,0.5,0.3
		c0.3,0,0.5-0.1,0.6-0.4l0.4,0c0,0.2-0.2,0.4-0.4,0.5C55.4,19.9,55.2,20,54.8,20 M54.9,17.5c-0.2,0-0.4,0.1-0.5,0.2
		c-0.1,0.2-0.2,0.4-0.2,0.7h1.2c0,0,0-0.1,0-0.1C55.4,17.7,55.2,17.5,54.9,17.5"/>
	<path class="st1" d="M63.2,19.9H62v-0.3c0.2,0,0.3,0,0.3,0c0,0,0.1-0.1,0.1-0.1c0,0,0-0.1,0-0.1v-1c0-0.3,0-0.4-0.1-0.5
		c0-0.1-0.1-0.2-0.2-0.2c-0.1,0-0.1-0.1-0.2-0.1c-0.1,0-0.3,0-0.4,0.1c-0.1,0.1-0.2,0.1-0.3,0.2c0,0.1,0,0.3,0,0.4v1
		c0,0.1,0,0.2,0.1,0.2c0,0,0.1,0.1,0.3,0.1v0.3h-1.3v-0.3c0.2,0,0.3,0,0.3,0c0,0,0.1-0.1,0.1-0.1c0,0,0-0.1,0-0.1v-1
		c0-0.3,0-0.4-0.1-0.5c0-0.1-0.1-0.2-0.2-0.2c-0.1,0-0.1-0.1-0.2-0.1c-0.1,0-0.3,0-0.4,0.1c-0.1,0.1-0.2,0.1-0.3,0.2v1.5
		c0,0.1,0,0.2,0.1,0.2c0.1,0,0.2,0.1,0.4,0.1v0.3h-1.4v-0.3c0.2,0,0.3,0,0.3,0c0,0,0.1-0.1,0.1-0.1c0,0,0-0.1,0-0.1v-1.5
		c0-0.1,0-0.2,0-0.3c0,0-0.1-0.1-0.2-0.1h-0.2v-0.3c0.2,0,0.3,0,0.4,0c0.1,0,0.2,0,0.2-0.1c0,0,0.1,0,0.1,0c0.1,0,0.2,0,0.2,0.1
		c0,0.1,0,0.1,0,0.3v0c0.2-0.2,0.4-0.3,0.7-0.3c0.1,0,0.2,0,0.2,0c0.3,0,0.5,0.1,0.7,0.4c0.2-0.2,0.4-0.3,0.7-0.4c0.1,0,0.2,0,0.3,0
		c0.5,0,0.8,0.4,0.8,1.2v1c0,0.1,0,0.2,0.1,0.2c0,0,0.1,0.1,0.3,0.1V19.9"/>
	<path class="st1" d="M66.1,20c-0.1,0-0.3,0-0.4-0.1c-0.1-0.1-0.2-0.2-0.2-0.3c-0.3,0.3-0.6,0.4-1,0.4c-0.2,0-0.4-0.1-0.6-0.2
		c-0.2-0.1-0.2-0.3-0.2-0.5c0-0.4,0.3-0.7,0.9-0.9c0.4-0.1,0.6-0.2,0.7-0.2c0.1,0,0.1-0.1,0.1-0.1c0,0,0-0.1,0-0.2
		c0-0.1-0.1-0.2-0.2-0.3c-0.1-0.1-0.2-0.1-0.4-0.1c-0.2,0-0.3,0-0.4,0.1c0.1,0.1,0.1,0.2,0.1,0.3c0,0.1,0,0.2-0.1,0.2
		c-0.1,0.1-0.2,0.1-0.2,0.1c-0.1,0-0.2,0-0.2-0.1c-0.1-0.1-0.1-0.1-0.1-0.2c0-0.2,0.1-0.4,0.3-0.5c0.2-0.1,0.5-0.2,0.8-0.2
		c0.5,0,0.9,0.2,1,0.5c0,0.1,0.1,0.3,0.1,0.4v1.2c0,0.2,0,0.3,0.1,0.3c0.1,0,0.1,0,0.2-0.1c0-0.1,0.1-0.2,0.1-0.3h0.3
		c0,0,0,0.1,0,0.1c0,0.2,0,0.3-0.1,0.4C66.5,19.9,66.3,20,66.1,20 M65.5,18.4c-0.1,0.1-0.2,0.1-0.4,0.2c-0.1,0-0.2,0.1-0.2,0.1
		c-0.2,0.1-0.3,0.2-0.4,0.3c-0.1,0.1-0.1,0.2-0.1,0.3c0,0.1,0,0.2,0.1,0.3c0.1,0.1,0.2,0.1,0.3,0.1c0.2,0,0.4-0.1,0.5-0.2
		c0.1-0.1,0.2-0.3,0.2-0.6V18.4"/>
	<path class="st1" d="M69.5,20c-0.3,0-0.5-0.1-0.6-0.4c0-0.1-0.1-0.2-0.1-0.3c-0.1-0.2-0.2-0.4-0.3-0.5c-0.1-0.1-0.3-0.2-0.5-0.2
		c0,0,0,0,0,0c0,0,0,0,0,0v0.8c0,0.1,0,0.2,0.1,0.2c0,0,0.2,0.1,0.3,0.1v0.3h-1.4v-0.3c0.2,0,0.3,0,0.3-0.1c0.1,0,0.1-0.1,0.1-0.2
		v-2.9c0-0.1,0-0.2,0-0.3c0,0-0.1-0.1-0.2-0.1h-0.2v-0.3c0.2,0,0.3,0,0.4,0c0.1,0,0.2,0,0.2-0.1c0,0,0.1,0,0.1,0
		c0.1,0,0.2,0,0.2,0.1c0,0.1,0,0.1,0,0.3v2.2h0.1c0.3-0.2,0.6-0.4,0.8-0.7c0,0,0.1-0.1,0.1-0.1h-0.5v-0.3h1.5v0.3
		c-0.3,0-0.7,0.2-1,0.5c-0.1,0.1-0.2,0.2-0.3,0.3c0.3,0.1,0.5,0.4,0.7,0.7c0,0.1,0.1,0.2,0.1,0.3c0,0.1,0.1,0.1,0.1,0.2
		c0,0.1,0.1,0.1,0.1,0.1c0.1,0,0.2-0.1,0.2-0.4h0.3c0,0.1,0,0.1,0,0.2c0,0,0,0.1,0,0.1c0,0.1,0,0.1-0.1,0.2C70,19.9,69.8,20,69.5,20
		"/>
	<path class="st1" d="M71.8,20c-0.3,0-0.6-0.1-0.9-0.3c-0.3-0.2-0.4-0.6-0.4-1c0-0.4,0.1-0.8,0.3-1.1c0.2-0.3,0.6-0.4,1-0.4
		c0.6,0,0.9,0.2,1.1,0.7C73,18,73,18.2,73,18.3c0,0.2,0,0.3,0,0.3h-1.9c0,0.3,0.1,0.5,0.2,0.7c0.1,0.2,0.3,0.3,0.5,0.3
		c0.3,0,0.5-0.1,0.6-0.4l0.4,0c0,0.2-0.2,0.4-0.4,0.5C72.4,19.9,72.1,20,71.8,20 M71.8,17.5c-0.2,0-0.4,0.1-0.5,0.2
		c-0.1,0.2-0.2,0.4-0.2,0.7h1.2c0,0,0-0.1,0-0.1C72.4,17.7,72.2,17.5,71.8,17.5"/>
	<path class="st1" d="M76.9,19.9h-1.4v-0.3c0.2,0,0.3,0,0.3-0.1c0.1,0,0.1-0.1,0.1-0.2v-2.9c0-0.1,0-0.2,0-0.3c0,0-0.1-0.1-0.2-0.1
		h-0.2v-0.3c0.2,0,0.3,0,0.4,0c0.1,0,0.2,0,0.2-0.1c0,0,0.1,0,0.1,0c0.1,0,0.2,0,0.2,0.1c0,0.1,0,0.1,0,0.3v3.3c0,0.1,0,0.2,0.1,0.2
		c0,0,0.2,0.1,0.3,0.1V19.9"/>
	<path class="st1" d="M78.7,20c-0.4,0-0.8-0.1-1-0.4c-0.2-0.3-0.3-0.6-0.3-1c0-0.2,0-0.4,0.1-0.6c0.1-0.2,0.2-0.3,0.3-0.5
		c0.2-0.2,0.5-0.4,0.9-0.4c0.4,0,0.7,0.1,1,0.4c0.2,0.2,0.4,0.6,0.4,1c0,0.4-0.1,0.8-0.3,1.1C79.5,19.8,79.2,20,78.7,20 M78.7,17.5
		c-0.3,0-0.5,0.2-0.6,0.6c0,0.1-0.1,0.3-0.1,0.5c0,0.4,0.1,0.6,0.2,0.8c0.1,0.2,0.3,0.3,0.5,0.3c0.2,0,0.4-0.1,0.5-0.3
		c0.1-0.2,0.2-0.5,0.2-0.8c0-0.6-0.1-0.9-0.4-1C78.9,17.5,78.8,17.5,78.7,17.5"/>
	<path class="st1" d="M81.2,21.3c-0.2,0-0.3,0-0.5-0.1c-0.1-0.1-0.2-0.2-0.2-0.3c0-0.1,0-0.2,0.1-0.3c0.1-0.1,0.2-0.1,0.3-0.1
		c0.2,0,0.3,0.1,0.3,0.2c0,0,0,0.1,0,0.1c0,0.1,0,0.2-0.1,0.2c0,0,0.1,0,0.1,0c0,0,0,0,0,0c0,0,0.1,0,0.1,0c0,0,0.1-0.1,0.1-0.1
		c0.1-0.1,0.1-0.2,0.2-0.3c0.1-0.1,0.1-0.2,0.1-0.3s0-0.1,0-0.2s0-0.1-0.1-0.1c0,0-0.1-0.1-0.1-0.1c0,0-0.1-0.1-0.1-0.1l-0.8-1.9
		c0-0.1-0.1-0.2-0.1-0.2c0,0-0.1-0.1-0.3-0.1v-0.3h1.4v0.3c-0.2,0-0.3,0-0.4,0c0,0-0.1,0.1-0.1,0.1c0,0,0,0.1,0,0.1l0.7,1.8l0.7-1.8
		c0-0.1,0-0.2,0-0.2c-0.1,0-0.2-0.1-0.4-0.1v-0.3h1.2v0.3c-0.1,0-0.2,0-0.3,0.1c-0.1,0-0.1,0.1-0.1,0.2l-0.7,1.9
		c-0.1,0.1-0.1,0.3-0.2,0.4c-0.1,0.1-0.1,0.3-0.2,0.4c-0.1,0.3-0.3,0.5-0.4,0.6C81.6,21.2,81.4,21.3,81.2,21.3"/>
	<path class="st1" d="M86.2,20c-0.1,0-0.3,0-0.4-0.1c-0.1-0.1-0.2-0.2-0.2-0.3c-0.3,0.3-0.6,0.4-1,0.4c-0.2,0-0.4-0.1-0.6-0.2
		c-0.2-0.1-0.2-0.3-0.2-0.5c0-0.4,0.3-0.7,0.9-0.9c0.4-0.1,0.6-0.2,0.7-0.2c0.1,0,0.1-0.1,0.1-0.1c0,0,0-0.1,0-0.2
		c0-0.1-0.1-0.2-0.2-0.3c-0.1-0.1-0.2-0.1-0.4-0.1c-0.2,0-0.3,0-0.4,0.1c0.1,0.1,0.1,0.2,0.1,0.3c0,0.1,0,0.2-0.1,0.2
		c-0.1,0.1-0.2,0.1-0.2,0.1c-0.1,0-0.2,0-0.2-0.1C84.1,18,84,17.9,84,17.8c0-0.2,0.1-0.4,0.3-0.5c0.2-0.1,0.5-0.2,0.8-0.2
		c0.5,0,0.9,0.2,1,0.5c0,0.1,0.1,0.3,0.1,0.4v1.2c0,0.2,0,0.3,0.1,0.3c0.1,0,0.1,0,0.2-0.1c0-0.1,0.1-0.2,0.1-0.3h0.3
		c0,0,0,0.1,0,0.1c0,0.2,0,0.3-0.1,0.4C86.6,19.9,86.4,20,86.2,20 M85.6,18.4c-0.1,0.1-0.2,0.1-0.4,0.2c-0.1,0-0.2,0.1-0.2,0.1
		c-0.2,0.1-0.3,0.2-0.4,0.3c-0.1,0.1-0.1,0.2-0.1,0.3c0,0.1,0,0.2,0.1,0.3c0.1,0.1,0.2,0.1,0.3,0.1c0.2,0,0.4-0.1,0.5-0.2
		c0.1-0.1,0.2-0.3,0.2-0.6V18.4"/>
	<path class="st1" d="M88.4,19.9h-1.4v-0.3c0.2,0,0.3,0,0.3-0.1c0.1,0,0.1-0.1,0.1-0.2v-2.9c0-0.1,0-0.2,0-0.3c0,0-0.1-0.1-0.2-0.1
		H87v-0.3c0.2,0,0.3,0,0.4,0c0.1,0,0.2,0,0.2-0.1c0,0,0.1,0,0.1,0c0.1,0,0.2,0,0.2,0.1c0,0.1,0,0.1,0,0.3v3.3c0,0.1,0,0.2,0.1,0.2
		c0,0,0.2,0.1,0.3,0.1V19.9"/>
	<path class="st1" d="M90.1,20c-0.6,0-0.8-0.3-0.8-0.9v-1.3c0-0.1,0-0.1,0-0.1c0,0-0.1,0-0.1,0h-0.2v-0.3H89c0.1,0,0.2,0,0.3-0.1
		c0.1-0.1,0.1-0.2,0.1-0.4l0-0.2h0.4v0.8h0.8v0.3h-0.8V19c0,0.3,0.1,0.5,0.2,0.6c0,0,0.1,0,0.1,0c0.2,0,0.3-0.2,0.4-0.5h0.3
		c0,0.4-0.2,0.6-0.5,0.7C90.3,19.9,90.2,20,90.1,20"/>
	<polygon class="st2" points="0,8 17,10.8 34,7.2 17.1,14.8 0,8 	"/>
	<polygon class="st3" points="16.7,0 27.3,10.2 17.2,14.8 6.8,10.7 16.7,0 	"/>
	<polygon class="st4" points="34,7.2 17.2,14.8 27,19.6 34,7.2 	"/>
	<polygon class="st5" points="0,8 17.1,14.8 7.5,20 0,8 	"/>
	<polygon class="st6" points="7.5,20 27,19.6 17.1,14.8 7.5,20 	"/>
	<polygon class="st7" points="16.3,4.6 16.5,12 20,8.2 16.3,4.6 	"/>
</g>
</svg>
