<svg xmlns="http://www.w3.org/2000/svg" xmlns:xlink="http://www.w3.org/1999/xlink" width="26" height="26" viewBox="0 0 26 26">
    <defs>
        <path id="a" d="M0 9.05V0h19.004v18.1H0z"/>
        <path id="c" d="M9.164 9.164H0V0h9.164v9.164z"/>
    </defs>
    <g fill="none" fill-rule="evenodd">
        <g transform="matrix(-1 0 0 1 26 0)">
            <mask id="b" fill="#fff">
                <use xlink:href="#a"/>
            </mask>
            <path fill="#FFF" d="M9.502 15.837c-3.93 0-7.126-3.045-7.126-6.787 0-3.743 3.196-6.788 7.126-6.788S16.63 5.307 16.63 9.05c0 3.742-3.197 6.787-7.127 6.787m9.502-6.787C19.004 4.052 14.75 0 9.502 0 4.254 0 0 4.052 0 9.05c0 4.997 4.254 9.05 9.502 9.05 5.248 0 9.502-4.053 9.502-9.05" mask="url(#b)"/>
        </g>
        <g transform="matrix(-1 0 0 1 10.26 15.74)">
            <mask id="d" fill="#fff">
                <use xlink:href="#c"/>
            </mask>
            <path fill="#FFF" d="M8.518 5.399L3.119 0A10.38 10.38 0 0 1 0 3.12l5.399 5.398a2.205 2.205 0 1 0 3.119-3.119" mask="url(#d)"/>
        </g>
    </g>
</svg>
