<?xml version="1.0" encoding="utf-8"?>
<!-- Generator: Adobe Illustrator 19.0.0, SVG Export Plug-In . SVG Version: 6.00 Build 0)  -->
<svg version="1.1" id="Слой_1" xmlns="http://www.w3.org/2000/svg" xmlns:xlink="http://www.w3.org/1999/xlink" x="0px" y="0px"
	 viewBox="0 0 45.8 26.1" style="enable-background:new 0 0 45.8 26.1;" xml:space="preserve">
<style type="text/css">
	.st0{fill-rule:evenodd;clip-rule:evenodd;fill:#CCCBCA;}
</style>
<path id="XMLID_2_" class="st0" d="M22.4,26h2.7c0,0,0.8-0.1,1.2-0.5c0.4-0.4,0.4-1.2,0.4-1.2s-0.1-3.7,1.6-4.2
	c1.7-0.5,3.8,3.5,6.1,5.1c1.7,1.2,3,0.9,3,0.9l6.1-0.1c0,0,3.2-0.2,1.7-2.7c-0.1-0.2-0.9-1.9-4.5-5.3c-3.8-3.6-3.3-3,1.3-9.1
	c2.8-3.7,3.9-6,3.6-7c-0.3-0.9-2.4-0.7-2.4-0.7l-6.9,0c0,0-0.5-0.1-0.9,0.2c-0.4,0.2-0.6,0.7-0.6,0.7S33.8,5,32.4,7.5
	c-3.1,5.2-4.3,5.5-4.8,5.2c-1.2-0.8-0.9-3-0.9-4.6c0-5,0.8-7.1-1.5-7.7C24.5,0.1,23.9,0,22,0c-2.5,0-4.5,0-5.7,0.6
	c-0.8,0.4-1.4,1.2-1,1.3c0.5,0.1,1.5,0.3,2,1C18,3.9,18,6,18,6s0.4,5.9-0.9,6.7c-0.9,0.5-2.2-0.5-4.9-5.2C10.7,5,9.7,2.3,9.7,2.3
	S9.5,1.8,9.1,1.6C8.6,1.3,8,1.2,8,1.2l-6.5,0c0,0-1,0-1.3,0.5c-0.3,0.4,0,1.2,0,1.2s5.1,12,10.9,18C16.4,26.4,22.4,26,22.4,26
	L22.4,26z"/>
</svg>
