<?xml version="1.0" encoding="utf-8"?>
<!-- Generator: Adobe Illustrator 19.0.0, SVG Export Plug-In . SVG Version: 6.00 Build 0)  -->
<svg version="1.1" id="Слой_1" xmlns="http://www.w3.org/2000/svg" xmlns:xlink="http://www.w3.org/1999/xlink" x="0px" y="0px"
	 viewBox="0 0 45.4 45.4" style="enable-background:new 0 0 45.4 45.4;" xml:space="preserve">
<style type="text/css">
	.st0{fill-rule:evenodd;clip-rule:evenodd;fill:#CCCBCA;}
	.st1{fill:#CCCBCA;}
</style>
<path id="XMLID_2_" class="st0" d="M-637.6,552.8h2.7c0,0,0.8-0.1,1.2-0.5c0.4-0.4,0.4-1.2,0.4-1.2s-0.1-3.7,1.6-4.2
	c1.7-0.5,3.8,3.5,6.1,5.1c1.7,1.2,3,0.9,3,0.9l6.1-0.1c0,0,3.2-0.2,1.7-2.7c-0.1-0.2-0.9-1.9-4.5-5.3c-3.8-3.6-3.3-3,1.3-9.1
	c2.8-3.7,3.9-6,3.6-7c-0.3-0.9-2.4-0.7-2.4-0.7l-6.9,0c0,0-0.5-0.1-0.9,0.2c-0.4,0.2-0.6,0.7-0.6,0.7s-1.1,2.9-2.5,5.4
	c-3.1,5.2-4.3,5.5-4.8,5.2c-1.2-0.8-0.9-3-0.9-4.6c0-5,0.8-7.1-1.5-7.7c-0.7-0.2-1.3-0.3-3.2-0.3c-2.5,0-4.5,0-5.7,0.6
	c-0.8,0.4-1.4,1.2-1,1.3c0.5,0.1,1.5,0.3,2,1c0.7,1,0.7,3.1,0.7,3.1s0.4,5.9-0.9,6.7c-0.9,0.5-2.2-0.5-4.9-5.2
	c-1.4-2.4-2.5-5.1-2.5-5.1s-0.2-0.5-0.6-0.8c-0.4-0.3-1.1-0.4-1.1-0.4l-6.5,0c0,0-1,0-1.3,0.5c-0.3,0.4,0,1.2,0,1.2s5.1,12,10.9,18
	C-643.6,553.2-637.6,552.8-637.6,552.8L-637.6,552.8z"/>
<path id="XMLID_17_" class="st1" d="M22.7,0C10.2,0,0,10.2,0,22.7s10.2,22.7,22.7,22.7c12.5,0,22.7-10.2,22.7-22.7S35.2,0,22.7,0z
	 M33.5,16L22.7,32c-0.2,0.3-0.5-0.4-0.9,0.6h0c-0.4,0-0.7-0.3-0.9-0.6l-8.1-10.6c-0.3-0.4-0.3-1.1,0-1.5c0.4-0.4,1-0.5,1.4-0.3
	l7.5,6l10-11.2c0.4-0.4,1.1-0.4,1.5,0C33.8,14.8,33.8,15.5,33.5,16z"/>
</svg>
