<?xml version="1.0" encoding="utf-8"?>
<!-- Generator: Adobe Illustrator 19.0.0, SVG Export Plug-In . SVG Version: 6.00 Build 0)  -->
<svg version="1.1" id="Слой_1" xmlns="http://www.w3.org/2000/svg" xmlns:xlink="http://www.w3.org/1999/xlink" x="0px" y="0px"
	 viewBox="0 0 38.9 44.9" style="enable-background:new 0 0 38.9 44.9;" xml:space="preserve">
<style type="text/css">
	.st0{fill-rule:evenodd;clip-rule:evenodd;fill:#CCCBCA;}
	.st1{fill:#CCCBCA;}
</style>
<path id="XMLID_2_" class="st0" d="M-518.7,673.2h2.7c0,0,0.8-0.1,1.2-0.5c0.4-0.4,0.4-1.2,0.4-1.2s-0.1-3.7,1.6-4.2
	c1.7-0.5,3.8,3.5,6.1,5.1c1.7,1.2,3,0.9,3,0.9l6.1-0.1c0,0,3.2-0.2,1.7-2.7c-0.1-0.2-0.9-1.9-4.5-5.3c-3.8-3.6-3.3-3,1.3-9.1
	c2.8-3.7,3.9-6,3.6-7c-0.3-0.9-2.4-0.7-2.4-0.7l-6.9,0c0,0-0.5-0.1-0.9,0.2c-0.4,0.2-0.6,0.7-0.6,0.7s-1.1,2.9-2.5,5.4
	c-3.1,5.2-4.3,5.5-4.8,5.2c-1.2-0.8-0.9-3-0.9-4.6c0-5,0.8-7.1-1.5-7.7c-0.7-0.2-1.3-0.3-3.2-0.3c-2.5,0-4.5,0-5.7,0.6
	c-0.8,0.4-1.4,1.2-1,1.3c0.5,0.1,1.5,0.3,2,1c0.7,1,0.7,3.1,0.7,3.1s0.4,5.9-0.9,6.7c-0.9,0.5-2.2-0.5-4.9-5.2
	c-1.4-2.4-2.5-5.1-2.5-5.1s-0.2-0.5-0.6-0.8c-0.4-0.3-1.1-0.4-1.1-0.4l-6.5,0c0,0-1,0-1.3,0.5c-0.3,0.4,0,1.2,0,1.2s5.1,12,10.9,18
	C-524.8,673.6-518.7,673.2-518.7,673.2L-518.7,673.2z"/>
<path id="XMLID_17_" class="st1" d="M141.5,120.4c-12.5,0-22.7,10.2-22.7,22.7s10.2,22.7,22.7,22.7c12.5,0,22.7-10.2,22.7-22.7
	S154,120.4,141.5,120.4z M152.3,136.3l-10.8,16c-0.2,0.3-0.5-0.4-0.9,0.6h0c-0.4,0-0.7-0.3-0.9-0.6l-8.1-10.6
	c-0.3-0.4-0.3-1.1,0-1.5c0.4-0.4,1-0.5,1.4-0.3l7.5,6l10-11.2c0.4-0.4,1.1-0.4,1.5,0C152.6,135.2,152.6,135.8,152.3,136.3z"/>
<g id="XMLID_45_">
	<path id="XMLID_50_" class="st1" d="M-44.6,145.8l-4.5,6.4h-3.3c0-0.2,0-0.4,0-0.6c0-6.8-5.5-12.3-12.3-12.3
		c-6.8,0-12.3,5.5-12.3,12.3c0,0.2,0,0.4,0,0.6h-3.2l-4.6-6.4c0-5.7,11.9-10.9,15.1-11.4c1-0.1,1-2.8,1-2.8s-2.9-2.8-3.5-6.7
		c-1.7,0-2.7-4.1-1.1-5.5c-0.1-1.5-2.2-11.8,8.5-11.8c10.7,0,8.6,10.3,8.5,11.8c1.7,1.4,0.7,5.5-1.1,5.5c-0.6,3.8-3.5,6.7-3.5,6.7
		s0,0.7,0.1,1.4c0.1,0.7,0.4,1.4,0.9,1.5C-56.5,135-44.6,140.1-44.6,145.8z"/>
	<g id="XMLID_46_">
		<path id="XMLID_47_" class="st1" d="M-64.7,141.8c-5.4,0-9.8,4.4-9.8,9.8c0,0.2,0,0.4,0,0.6c0.3,5.1,4.6,9.2,9.8,9.2
			c5.2,0,9.5-4.1,9.8-9.2c0-0.2,0-0.4,0-0.6C-54.8,146.2-59.2,141.8-64.7,141.8z M-60.3,152.8h-3.2v3.2c0,0.3-0.2,0.5-0.5,0.5h-1.3
			c-0.3,0-0.5-0.3-0.5-0.5v-3.2H-69c-0.3,0-0.5-0.2-0.5-0.5c0,0,0,0,0,0V151c0-0.3,0.3-0.5,0.5-0.5h3.2v-3.2c0-0.3,0.2-0.6,0.5-0.6
			h1.3c0.3,0,0.5,0.3,0.5,0.6v3.2h3.2c0.3,0,0.6,0.2,0.6,0.5v1.3c0,0,0,0,0,0C-59.7,152.6-60,152.8-60.3,152.8z"/>
	</g>
</g>
<path id="XMLID_64_" class="st1" d="M32.5,0H6.4C2.9,0,0,2.9,0,6.4v25.8c0,3.5,2.9,6.4,6.4,6.4h26.1c0.1,0,0.1,0,0.2,0l6.3,6.3V32.3
	v-7.1V6.4C38.9,2.9,36,0,32.5,0z"/>
</svg>
